<svg xmlns="http://www.w3.org/2000/svg" xmlns:xlink="http://www.w3.org/1999/xlink" width="968.842" height="450"><defs><path id="a" d="M6.708 377.68L224.701-12.142l809.085 100.476-217.994 389.823z"/></defs><clipPath id="b"><use xlink:href="#a" overflow="visible"/></clipPath><path clip-path="url(#b)" fill="#BCBEC0" d="M711.28 320.191l-.276-.034.09.366.186-.332m1.263-2.257l-.457.297.272.033.185-.33"/><path clip-path="url(#b)" fill="#CEE3E6" d="M272.274 273.771l-43.315 12.383 89.208 11.078-21.573-17.916-1.996-.248-2.448 4.377-4.13-.514 2.448-4.379-2.38-.296-7.901 2.74-.315-.563-.866.418-3.393-3.569-2.148 3.842-4.345-.54 3.568-6.38-.414-.433m23.633-4.941l-.09-.012-9.207 5.879 5.625.699 3.672-6.566m241.876 19.537a4.832 4.832 0 01-1.53.225 25.436 25.436 0 01-1.458-.062 8.304 8.304 0 00-.958.023 3.977 3.977 0 00-.909.172 2.82 2.82 0 00-.803.426 2.437 2.437 0 00-.64.766c-.214.382-.201.691.043.936.249.233.599.385 1.066.44.495.062.959.039 1.375-.06.417-.099.798-.24 1.153-.434a4.9 4.9 0 00.971-.678c.296-.26.561-.525.808-.792l.882-.962m-15.32-3.394l-3.479-.433-3.126 3.791 4.44.552a4.325 4.325 0 002.323-.331c.734-.317 1.311-.858 1.734-1.616.206-.371.29-.677.23-.906a.95.95 0 00-.395-.573 2.226 2.226 0 00-.783-.32 8.583 8.583 0 00-.944-.164m59.878 5.175a3.57 3.57 0 00-1.76.238 6.575 6.575 0 00-1.646.937 9.203 9.203 0 00-1.388 1.313c-.411.479-.748.938-.994 1.381a3.063 3.063 0 00-.34.893c-.056.29-.047.557.023.795.082.232.225.438.443.594.209.162.504.268.887.314.603.074 1.19 0 1.781-.237a6.8 6.8 0 001.668-.944 9.51 9.51 0 001.406-1.33c.414-.484.742-.945.988-1.388.389-.694.521-1.266.396-1.721-.119-.455-.606-.738-1.464-.845m13.43 1.668a3.427 3.427 0 00-1.636.205 6.68 6.68 0 00-1.544.815c-.483.351-.926.74-1.32 1.183a7.087 7.087 0 00-.945 1.279 3.623 3.623 0 00-.362.887 1.517 1.517 0 00-.008.771c.054.233.19.435.399.582.193.151.491.253.862.299a3.78 3.78 0 001.708-.178 6.143 6.143 0 001.582-.81 7.945 7.945 0 001.347-1.188c.398-.446.728-.889.974-1.328.365-.652.474-1.21.327-1.674-.135-.466-.596-.745-1.384-.843M248.019 248.25l-20.729 37.066 43.998-12.582-23.269-24.484m93.227 11.578l-44.521 15.438-.359.646 2.85.354-1.125 2.012 22.422 18.629 20.733-37.079m-1.202-.933l-90.004-11.177 23.583 24.814 2.356-4.214-5.378-.668 1.616-2.891c.093.016.187.027.28.038.652.081 1.314.108 1.984.083a8.493 8.493 0 002.247-.384 8.177 8.177 0 002.078-.999c.661-.438 1.256-1.016 1.782-1.717l3.453.429-7.493 13.396 3.791 3.988 4.883-1.693-3.809-.473 1.965-3.514 15.466-9.868 3.882.481-5.066 9.06 42.384-14.691m187.036 20.806l-3.75-.465-2.65 3.236 4.019.5a3.95 3.95 0 001.938-.264 2.858 2.858 0 001.506-1.316c.314-.562.354-.967.13-1.209-.226-.249-.623-.412-1.193-.482m103.535 12.752c-.521-.064-1.068.016-1.626.238-.56.222-1.11.531-1.652.934a11.73 11.73 0 00-1.593 1.395 22.276 22.276 0 00-1.407 1.582c-.42.53-.802 1.041-1.127 1.525-.333.484-.588.893-.771 1.223a5.69 5.69 0 00-.434.963c-.091.306-.121.578-.079.819.042.24.168.442.384.611s.53.282.971.336c.545.067 1.094-.013 1.668-.231a7.264 7.264 0 001.66-.934 12.88 12.88 0 001.594-1.381c.52-.518.989-1.041 1.426-1.569.435-.534.812-1.039 1.137-1.512.321-.479.573-.884.752-1.201.19-.341.337-.677.426-.994.086-.312.103-.594.038-.843a1.103 1.103 0 00-.429-.629c-.216-.168-.525-.281-.938-.332m-149.464-11.099c-.156-.021-.255-.082-.308-.181-.052-.1-.036-.222.039-.354l.523-.938a.794.794 0 01.341-.322.75.75 0 01.451-.08l3.717.463 2.888-5.166a.83.83 0 01.803-.4l1.058.131c.157.021.255.082.306.182.051.101.035.223-.039.354l-3.675 6.571a.785.785 0 01-.337.317.804.804 0 01-.454.086l-5.313-.663m9.229-9.393c-1.637-.203-3.349-.031-5.126.51a15.619 15.619 0 00-4.91 2.491c-1.492 1.121-2.646 2.408-3.455 3.854-.806 1.439-1.146 2.83-1.02 4.146.127 1.322.676 2.425 1.663 3.313.979.885 2.295 1.425 3.932 1.627 1.636.203 3.344.039 5.131-.502a15.831 15.831 0 004.904-2.498c1.489-1.115 2.643-2.402 3.448-3.844.81-1.447 1.149-2.836 1.023-4.158-.127-1.32-.676-2.424-1.654-3.309-.99-.881-2.3-1.427-3.936-1.63m-265.981 15.003l22.906-40.961 96.912 12.035-22.906 40.961-96.912-12.035m159.789-35.422l-164.035-20.371-34.891 62.394 164.035 20.371 34.891-62.394M246.86 221.584c-1.322-.164-2.922.944-3.566 2.096-.308.519-.418 1.144.391 1.244.777.097 2.047-.674 2.754-1.559l1.213-1.521a2.041 2.041 0 00-.792-.26m19.76 2.454c-1.321-.164-2.922.944-3.566 2.096-.308.519-.418 1.144.392 1.244.776.097 2.047-.674 2.753-1.56l1.212-1.521a2.076 2.076 0 00-.791-.259m-34.962-4.354c-1.132-.14-2.57.994-3.169 2.065-.424.758-.252 1.368.508 1.462 1.074.133 2.563-.982 3.172-2.07.3-.539.439-1.339-.511-1.457m20.595 2.557c-1.141-.142-2.579.993-3.178 2.064-.424.758-.252 1.368.516 1.462 1.066.133 2.556-.982 3.164-2.073.301-.535.447-1.335-.502-1.453m21.743 2.7c-1.132-.14-2.57.995-3.169 2.065-.424.758-.253 1.368.507 1.462 1.074.134 2.564-.981 3.172-2.069.302-.54.44-1.339-.51-1.458m9.509 1.182c-1.272-.158-2.926.918-3.622 2.163-.311.556-.417 1.174.359 1.271.694.086 1.932-.515 2.749-1.535l1.26-1.588c-.109-.139-.366-.264-.746-.311m5.309.647c-.859-.104-1.921.562-2.56 1.264a6.6 6.6 0 00.236.029c1.312.162 2.416.095 2.804-.602.211-.377.008-.63-.48-.691m235.95-8.269l-6.622 1.382-2.399 4.296 6.813-1.729 2.208-3.949m14.564 1.809l-6.622 1.382-2.402 4.296 6.816-1.729 2.208-3.949m114.61 12.096c-.856-.106-1.697.006-2.521.337s-1.458.901-1.912 1.713c-.188.336-.281.646-.279.925.012.286.092.537.246.762.161.217.381.396.652.539.276.141.598.229.952.272.95.118 1.815.003 2.611-.345a3.771 3.771 0 001.801-1.621c.217-.389.316-.729.31-1.026a1.29 1.29 0 00-.273-.771 1.803 1.803 0 00-.673-.523 2.974 2.974 0 00-.914-.262m-133.487-18.39l-6.959 1.463 4.524 2.884 6.967-1.457-4.532-2.89m14.565 1.808l-6.959 1.464 4.527 2.884 6.964-1.457-4.532-2.891m51.166 6.013a3.55 3.55 0 00-1.76.24 6.756 6.756 0 00-1.646.941 8.842 8.842 0 00-1.389 1.308c-.409.481-.747.941-.991 1.381a3.06 3.06 0 00-.342.893 1.62 1.62 0 00.023.795c.078.239.224.438.441.603.218.163.517.262.889.31.603.073 1.19 0 1.784-.236a6.87 6.87 0 001.668-.944 9.64 9.64 0 001.399-1.324c.418-.493.755-.953 1.001-1.393.388-.689.517-1.267.391-1.723-.115-.459-.61-.744-1.468-.851m60.259 4.84l-.041-.005-8.941 4.629 4.693.583 4.289-5.207m11.876.219c-.826-.104-1.567-.012-2.232.277a3.076 3.076 0 00-1.497 1.352c-.185.33-.261.625-.225.877s.136.469.311.645c.175.178.397.316.662.411.271.103.535.166.808.199a3.91 3.91 0 001.03-.009 4.471 4.471 0 001.033-.27c.33-.133.63-.306.908-.521.27-.213.489-.465.654-.76.185-.33.278-.627.271-.883 0-.254-.079-.474-.224-.658a1.612 1.612 0 00-.613-.437 3.27 3.27 0 00-.886-.223m-121.555-15.932l-6.61 1.383-1.875 3.352 6.618-1.395 1.867-3.34M322.351 184.26l-43.308 12.381 89.189 11.076-24.958-20.739-13.018 4.514-.31-.568-.863.422-6.732-7.086m210.333 21.814l-7.6 1.601 4.942 3.152 7.598-1.595-4.94-3.158m-234.59-47.338l-20.73 37.07 44.001-12.584-23.271-24.486m93.235 11.579l-46.111 15.99 25.377 21.088 20.734-37.078m-1.201-.934l-90.012-11.178 30.302 31.884 59.71-20.706M274.483 197.45l22.906-40.96 96.903 12.034-22.905 40.96-96.904-12.034m157.904-35.006l-161.82-20.096-34.895 62.399 161.82 20.096 34.895-62.399m-104.734-25.68c-1.322-.165-2.936.948-3.574 2.094-.3.52-.411 1.145.391 1.244.776.097 2.057-.673 2.75-1.553l1.212-1.521a1.843 1.843 0 00-.779-.264m-32.022-3.99c-1.14-.142-2.578.993-3.177 2.063-.427.764-.256 1.374.512 1.469 1.066.132 2.555-.983 3.167-2.077.302-.538.448-1.337-.502-1.455m39.398 4.893c-1.132-.141-2.578.993-3.179 2.063-.427.764-.248 1.375.515 1.469 1.074.133 2.562-.982 3.175-2.076.301-.538.439-1.338-.511-1.456m9.509 1.181c-1.272-.158-2.926.918-3.622 2.164-.314.561-.417 1.174.351 1.269.702.087 1.938-.508 2.759-1.534l1.26-1.589c-.112-.138-.369-.263-.748-.31m5.306.653c-.857-.107-1.918.554-2.56 1.261l.184.024c1.339.166 2.465.103 2.859-.6.211-.376-.004-.626-.483-.685m91.561-43.803a4.704 4.704 0 00-1.985.168c-.646.198-1.26.5-1.84.905s-1.104.885-1.577 1.445c-.479.56-.895 1.158-1.251 1.795a8.362 8.362 0 00-.771 1.824c-.178.597-.223 1.137-.142 1.623.081.487.3.886.658 1.209.35.322.87.529 1.548.613a4.744 4.744 0 002.004-.172 6.67 6.67 0 001.82-.901 8.745 8.745 0 001.577-1.445 11.12 11.12 0 001.232-1.766 9.024 9.024 0 00.789-1.852c.167-.599.212-1.138.142-1.624a2.077 2.077 0 00-.642-1.212c-.345-.322-.868-.523-1.562-.61m50.237 6.239c-.741-.092-1.426-.059-2.032.101-.622.164-1.162.388-1.646.681s-.883.615-1.202.965c-.328.35-.587.67-.766.958l7.564.94c.368-1.069.427-1.91.162-2.519-.25-.607-.949-.985-2.08-1.126M361.739 80.914l-3.668-.456-7.285 13.026 4.585.57c.744.092 1.521.077 2.343-.05s1.639-.403 2.459-.828c.82-.424 1.614-1.007 2.388-1.759.768-.753 1.471-1.694 2.106-2.834.583-1.042.995-2 1.241-2.867.238-.868.259-1.633.072-2.294-.195-.662-.632-1.211-1.312-1.636-.687-.427-1.665-.715-2.929-.872m-196.432 232.19l1.078-1.929 9.352 1.162-1.078 1.929-9.352-1.162m18.695 2.321l1.078-1.928 9.343 1.161-1.078 1.928-9.343-1.161m18.687 2.32l1.078-1.929 9.352 1.16-1.078 1.93-9.352-1.161m18.695 2.321l1.078-1.93 9.344 1.16-1.078 1.93-9.344-1.16m18.687 2.323l1.078-1.929 9.352 1.161-1.078 1.928-9.352-1.16m18.695 2.32l1.078-1.928 9.344 1.16-1.078 1.929-9.344-1.161m18.687 2.32l1.078-1.93 9.352 1.161-1.078 1.931-9.352-1.162m18.694 2.323l1.078-1.928 9.344 1.16-1.078 1.928-9.344-1.16m18.687 2.32l1.078-1.928 9.352 1.16-1.078 1.93-9.352-1.162m18.696 2.322l1.078-1.93 9.343 1.16-1.078 1.93-9.343-1.16m18.686 2.32l1.078-1.931 9.354 1.161-1.078 1.93-9.354-1.16m18.696 2.322l1.078-1.928 9.343 1.16-1.078 1.929-9.343-1.161m18.687 2.321l1.078-1.928 9.354 1.16-1.078 1.929-9.354-1.161m18.694 2.32l1.078-1.928 9.344 1.158-1.078 1.93-9.344-1.16m18.687 2.323l1.075-1.929 9.354 1.162-1.078 1.929-9.351-1.162m18.696 2.321l1.078-1.928 9.343 1.159-1.078 1.929-9.343-1.16m18.686 2.32l1.078-1.929 9.352 1.16-1.078 1.93-9.352-1.161m18.696 2.321l1.078-1.931 9.343 1.161-1.075 1.93-9.346-1.16m18.686 2.322l1.078-1.928 9.352 1.161-1.078 1.928-9.352-1.161m18.694 2.321l1.078-1.928 9.348 1.158-1.078 1.931-9.348-1.161m18.688 2.32l1.078-1.93 9.352 1.161-1.078 1.931-9.352-1.162m18.695 2.323l1.078-1.928 9.343 1.16-1.078 1.928-9.343-1.16m18.687 2.32l1.078-1.928 9.352 1.16-1.075 1.93-9.355-1.162m18.695 2.322l1.078-1.93 9.343 1.16-1.078 1.93-9.343-1.16m18.687 2.321l1.078-1.928 9.354 1.161-1.078 1.929-9.354-1.162m-463.891-57.609l2.337-4.181 2.751.342-1.26 2.253 3.214.397-1.078 1.93-5.964-.741m482.586 59.931l1.078-1.929 3.214.397 1.26-2.252 2.75.344-2.338 4.18-5.964-.74m-476.564-70.699l3.685-6.588 2.751.342-3.685 6.588-2.751-.342m485.8 60.33l3.684-6.589 2.75.341-3.684 6.59-2.75-.342m-478.432-73.508l3.684-6.588 2.751.342-3.684 6.588-2.751-.342m485.8 60.33l3.685-6.588 2.75.342-3.685 6.588-2.75-.342M170.758 274.08l3.685-6.589 2.751.342-3.685 6.588-2.751-.341m485.8 60.329l3.688-6.589 2.75.342-3.688 6.589-2.75-.342m-478.432-73.507l3.685-6.588 2.751.342-3.685 6.589-2.751-.343m485.801 60.33l3.688-6.59 2.75.342-3.688 6.59-2.75-.342m-59.945-19.356l2.44-2.979 3.562.442-2.46 2.976-3.542-.439m-418.487-54.149l3.685-6.588 2.751.34-3.685 6.59-2.751-.342m485.8 60.33l3.686-6.59 2.75.342-3.686 6.59-2.75-.342m-61.722-13.036l2.468-2.977 3.561.439-2.459 2.979-3.57-.441m-77.317-9.724a6.128 6.128 0 011.588-1.543 7.33 7.33 0 011.853-.891 7.764 7.764 0 011.983-.36 11.133 11.133 0 012.014.07c.524.065 1.062.163 1.597.304.534.135.988.333 1.36.584.371.25.614.572.725.963.117.393.003.879-.34 1.463-.275.491-.685 1.062-1.223 1.705l-3.355 4.016a5.555 5.555 0 00-.509.677c-.181.271-.318.505-.432.7a2.009 2.009 0 00-.218.611l-3.205-.396.566-1.016a6.796 6.796 0 01-2.146.771 7.442 7.442 0 01-2.138.062c-.636-.078-1.15-.218-1.538-.427-.396-.204-.676-.448-.862-.731a1.488 1.488 0 01-.214-.941c.027-.352.146-.701.347-1.061.558-.996 1.393-1.746 2.5-2.246 1.11-.5 2.422-.739 3.912-.709.8.013 1.482.035 2.062.062a10.37 10.37 0 001.502-.02c.412-.043.753-.129 1.029-.273.271-.146.505-.383.688-.713.149-.268.202-.489.149-.663a.758.758 0 00-.29-.442 1.645 1.645 0 00-.546-.272 4.894 4.894 0 00-.646-.13 4.075 4.075 0 00-1.741.175 3.077 3.077 0 00-1.479 1.048l-2.993-.377m12.861 9.547c-1.636-.203-2.719-.715-3.229-1.539-.511-.826-.344-1.994.505-3.511a11.612 11.612 0 014.265-4.327 10.424 10.424 0 012.845-1.139 8.755 8.755 0 013.083-.156c.701.087 1.332.24 1.887.464.544.229.974.522 1.279.89.302.358.459.808.456 1.332.006.525-.173 1.131-.534 1.811l-3.206-.398c.34-.605.404-1.068.198-1.381-.198-.31-.669-.511-1.388-.6a3.554 3.554 0 00-1.775.236 6.382 6.382 0 00-1.626.963 9.24 9.24 0 00-1.35 1.354 10.03 10.03 0 00-.962 1.404 3.862 3.862 0 00-.378.882c-.069.282-.079.535-.013.761.071.219.204.408.42.562.216.155.521.256.936.307.354.044.706.033 1.045-.037a5.08 5.08 0 00.979-.329c.312-.144.606-.328.877-.543.278-.214.53-.44.763-.681l3.206.397c-1.207 1.226-2.499 2.129-3.89 2.699-1.399.579-2.857.77-4.393.579m31.112 3.864c-1.628-.202-2.722-.728-3.278-1.59-.56-.854-.425-2.021.398-3.498a10.93 10.93 0 011.854-2.427 11.621 11.621 0 012.473-1.879 11.068 11.068 0 012.896-1.127 8.815 8.815 0 013.082-.155c.793.099 1.479.276 2.048.538.566.264.995.604 1.271 1.025.286.42.405.918.365 1.492-.048.576-.275 1.235-.693 1.979a11.141 11.141 0 01-1.884 2.484 11.314 11.314 0 01-2.494 1.901c-.913.511-1.879.88-2.896 1.106a8.937 8.937 0 01-3.142.151m12.921 1.159c-.693-.086-1.269-.264-1.707-.534-.45-.267-.756-.608-.937-1.032-.181-.419-.223-.895-.147-1.438.067-.535.295-1.127.648-1.764.425-.76.977-1.488 1.649-2.19a11.746 11.746 0 012.265-1.854 10.556 10.556 0 012.654-1.207 6.832 6.832 0 012.799-.234c.812.103 1.451.33 1.915.687.456.354.667.896.617 1.612l.042.005 1.244-1.528 3.07.383-7.795 9.48c-.629.745-1.258 1.379-1.896 1.896a8.472 8.472 0 01-2.051 1.219 8.212 8.212 0 01-2.294.562c-.811.084-1.699.067-2.666-.053-.588-.072-1.144-.204-1.669-.398s-.956-.453-1.277-.776a1.923 1.923 0 01-.576-1.181c-.054-.459.093-1.004.442-1.629l3.188.396c-.164.266-.241.495-.221.695a.85.85 0 00.22.522c.143.144.325.257.552.341.229.086.469.146.726.178a3.31 3.31 0 001.428-.121c.442-.144.874-.36 1.292-.649a8.656 8.656 0 001.245-1.06c.412-.42.84-.868 1.277-1.34l-.021-.039c-1.373.859-2.71 1.213-4.016 1.051m-78.633-9.597l11.331-13.816 6.77.84c.814.104 1.519.238 2.119.412.593.173 1.041.414 1.356.714.314.308.477.687.474 1.146.001.459-.188 1.031-.565 1.707a5.948 5.948 0 01-2.024 2.089 6.59 6.59 0 01-1.365.631 4.765 4.765 0 01-1.491.217l-.022.041c.665.277 1.062.713 1.184 1.286.118.575-.019 1.212-.404 1.903-.431.771-.974 1.43-1.64 1.973s-1.4.971-2.188 1.281a10.22 10.22 0 01-2.45.639c-.854.104-1.685.104-2.491.006l-8.594-1.069m41.635 5.169l11.32-13.819 3.206.397-6.179 7.512.019.045 6.765-3.278 3.948.491-7.425 3.258-.567 6.771-3.527-.438.657-4.841-2.372 1.049-2.664 3.249-3.181-.396m12.549 1.559l11.373-13.812 3.205.398-11.397 13.811-3.181-.397m56.881 7.342c-.907-.113-1.599-.347-2.073-.716-.482-.363-.78-.815-.894-1.354-.122-.543-.085-1.145.096-1.813.178-.665.469-1.358.87-2.078.372-.666.82-1.341 1.348-2.03a20.919 20.919 0 011.765-1.996 18.946 18.946 0 012.098-1.81 14.222 14.222 0 012.343-1.424 10.48 10.48 0 012.483-.854 7.521 7.521 0 012.537-.111c.884.108 1.586.34 2.104.677.52.342.865.776 1.045 1.293.167.522.19 1.112.05 1.788-.145.67-.438 1.402-.875 2.183-.379.679-.837 1.37-1.37 2.077a18.964 18.964 0 01-1.811 2.029 18.29 18.29 0 01-2.138 1.803 14.561 14.561 0 01-2.396 1.404c-.825.387-1.667.66-2.544.836a8.25 8.25 0 01-2.638.096m-141.958-13.147c-2.313-.287-4.162-1.059-5.549-2.305-1.396-1.25-2.176-2.812-2.354-4.679-.175-1.864.315-3.815 1.455-5.854 1.146-2.045 2.757-3.854 4.861-5.438a22.086 22.086 0 016.936-3.521c2.516-.767 4.928-1.004 7.239-.718 2.313.286 4.162 1.056 5.549 2.306 1.396 1.25 2.178 2.81 2.354 4.676.175 1.865-.311 3.818-1.45 5.861-1.14 2.039-2.762 3.85-4.866 5.434a22.064 22.064 0 01-6.936 3.521c-2.512.766-4.925 1.004-7.239.717m-286.76-56.644l3.681-6.583 2.751.343-3.681 6.582-2.751-.342m485.8 60.33l3.681-6.583 2.75.341-3.681 6.584-2.75-.342m-293.395-45.272l43.72 5.43-37.056 66.261-40.967-5.088-169.536-21.054 37.054-66.262 166.785 20.713m-90.713-17.574c-.347-.043-.456-.322-.284-.629.201-.359.652-.613 1.04-.564.372.047.475.319.294.645-.201.357-.637.6-1.05.548m2.631-3.312c-.347-.044-.447-.322-.272-.636.197-.353.64-.606 1.037-.56.372.047.479.312.294.645-.202.359-.638.601-1.059.551m-62.711-4.867c.661.082 1.889-.502 2.673-1.494l1.853-2.333.909.113-2.562 3.223c-.416.505-.726.95-1 1.331l-.81-.101.624-.863-.024-.003c-.811.549-1.707.84-2.401.754-.686-.085-1.243-.464-.65-1.523.123-.22.302-.476.542-.781l2.052-2.562.9.112-2.019 2.535a5.974 5.974 0 00-.468.679c-.269.479-.239.836.381.913m18.254 2.875l3.629-4.543.9.112-3.621 4.546-.908-.115m-24.206-2.896c-1.322-.164-1.58-1.125-.994-2.173.865-1.545 2.873-2.813 4.583-2.601 1.429.177 1.54 1.212.989 2.197-.81 1.448-2.802 2.798-4.578 2.577m14.458 1.685c-1.074-.134-1.176-.995-.713-1.823.884-1.581 3.078-2.992 5.119-2.738.611.076 1.201.316 1.517.542l-2.974 3.754c-.764.97-1.448 1.608-2.229 1.964-.757.327-1.532.355-2.135.28-.645-.08-1.181-.289-1.405-.521l.609-.603c.21.226.676.418 1.221.483.9.113 1.818-.199 2.83-1.423l.568-.685-.017-.002c-.844.61-1.672.859-2.391.772m6.129.873c-1.322-.164-1.58-1.125-.994-2.174.864-1.545 2.872-2.813 4.59-2.6 1.429.177 1.539 1.212.988 2.197-.808 1.448-2.799 2.797-4.584 2.577m9.856-2.901l.025.003c.84-.602 1.763-.877 2.531-.781.628.078 1.16.484.616 1.457-.12.214-.323.499-.512.742l-2.123 2.657-.893-.11 2.09-2.631c.133-.176.286-.386.399-.588.259-.463.247-.836-.381-.914-.644-.08-1.943.489-2.83 1.617l-1.749 2.21-.9-.112 2.554-3.224c.415-.506.742-.948 1.009-1.33l.81.1-.646.904m3.767 4.481c-1.066-.133-1.167-.994-.704-1.822.884-1.581 3.069-2.99 5.118-2.736.611.076 1.201.317 1.517.542l-2.974 3.754c-.763.97-1.447 1.606-2.229 1.964-.757.327-1.532.354-2.135.28-.644-.08-1.181-.289-1.405-.521l.609-.602c.21.225.676.418 1.221.484.892.11 1.817-.2 2.829-1.426l.568-.686-.017-.002c-.842.611-1.671.861-2.398.771m8.129 1.12c-1.322-.164-1.58-1.125-.994-2.172.864-1.546 2.872-2.813 4.582-2.601 1.438.178 1.548 1.214.997 2.198-.809 1.447-2.809 2.796-4.585 2.575m7.234-3.126l.033.004c.695-.595 1.534-1.004 2.244-.917.091.012.184.035.255.05l-.617.772a1.328 1.328 0 00-.247-.05c-.785-.098-1.957.654-2.788 1.716l-1.587 2.001-.9-.111 2.327-2.932c.464-.592.893-1.202 1.194-1.628l.801.1c-.233.324-.459.649-.715.995m7.595 4.969c-1.396-.174-1.535-1.096-.956-2.132.787-1.407 2.858-2.852 4.56-2.641 1.008.125 1.255.726.88 1.397-.659 1.178-2.287 1.34-4.133 1.108-.078-.01-.156-.021-.234-.028-.154.194-.364.635-.388.896-.033.454.283.71.829.775.628.078 1.184-.031 1.599-.143l-.201.613a5.144 5.144 0 01-1.956.155m6.565-3.209l.033.004c.694-.596 1.533-1.004 2.244-.916.083.012.175.033.247.049l-.617.771a1.334 1.334 0 00-.238-.048c-.785-.099-1.957.655-2.797 1.714l-1.587 2.001-.893-.11 2.328-2.931c.456-.594.893-1.202 1.193-1.629l.793.099c-.225.324-.45.648-.706.996m-92.028-6.347l3.684-6.588 2.751.342-3.684 6.588-2.751-.342m485.8 60.33l3.685-6.588 2.75.341-3.685 6.589-2.75-.342m-445.563-60.825l.485-.615.752.093.667-.846 1.089-.131-.864 1.088 1.272.158-.501.612-1.264-.157-1.745 2.204c-.212.252-.389.49-.525.733-.155.278-.104.47.243.513.166.021.321.027.453.013l-.395.626a2.642 2.642 0 01-.75 0c-.793-.099-.876-.567-.607-1.048.152-.272.34-.527.61-.853l1.833-2.298-.753-.092m17.011.596c-.314-.039-.392-.278-.23-.567.18-.306.574-.504.888-.465.331.041.437.277.275.566-.196.316-.57.511-.933.466m27.309 4.294l1.721-2.175.893.111-4.155 5.217a20.38 20.38 0 00-1.055 1.46l-.826-.103.659-.909-.017-.002c-.86.604-1.725.888-2.485.793-1.024-.127-1.164-.937-.629-1.892.929-1.662 3.177-3.013 5.044-2.779.338.043.67.158.85.279m-77.188-17.572l3.685-6.588 2.751.342-3.684 6.588-2.752-.342m485.8 60.33l3.685-6.588 2.75.341-3.685 6.589-2.75-.342m-478.432-73.507l3.685-6.588 2.751.342-3.684 6.588-2.752-.342m485.801 60.33l3.688-6.588 2.75.342-3.688 6.588-2.75-.342m-81.636-20.379l2.446-2.981 3.561.44-2.463 2.981-3.544-.44m5.601-6.858l2.46-2.976 3.565.443-2.468 2.975-3.557-.442m-402.397-46.269l3.684-6.588 2.751.342-3.684 6.588-2.751-.342m485.801 60.329l3.687-6.588 2.75.341-3.687 6.588-2.75-.341m-128.069-11.775c-1.628-.201-2.721-.733-3.271-1.594-.562-.856-.433-2.023.396-3.5a10.832 10.832 0 011.852-2.426 11.858 11.858 0 012.481-1.878 10.579 10.579 0 012.88-1.122 8.702 8.702 0 013.086-.162c.801.099 1.479.276 2.048.539.568.262.995.606 1.271 1.025.285.419.405.917.365 1.494-.04.577-.271 1.242-.686 1.983a11.514 11.514 0 01-4.389 4.383c-.91.513-1.88.881-2.896 1.105a8.913 8.913 0 01-3.137.153m13.225 1.643c-1.635-.203-2.715-.721-3.226-1.546-.513-.825-.346-1.993.506-3.51a11.511 11.511 0 014.262-4.319 10.195 10.195 0 012.845-1.139 8.57 8.57 0 013.086-.162c.701.087 1.332.24 1.886.469.549.223.976.517 1.28.884.299.365.456.812.465 1.333-.002.526-.181 1.129-.547 1.814l-3.205-.398c.347-.614.407-1.076.209-1.385-.206-.311-.668-.51-1.396-.601a3.544 3.544 0 00-1.775.237 6.344 6.344 0 00-1.625.962c-.502.408-.949.86-1.35 1.355-.396.502-.719.969-.965 1.41a3.592 3.592 0 00-.37.883 1.367 1.367 0 00-.019.753c.072.22.215.41.42.56.217.157.521.256.936.311.354.044.706.031 1.046-.037.331-.068.668-.186.977-.324.312-.146.606-.324.892-.546.27-.214.521-.44.751-.68l3.206.396c-1.202 1.231-2.498 2.129-3.893 2.706a8.609 8.609 0 01-4.396.574m-12.493-16.207l-2.471 3.042 2.298.286-1.555 1.832-2.28-.283-4.063 4.975c-.086.107-.163.196-.228.281a1.319 1.319 0 00-.123.189c-.104.186-.152.334-.142.439a.395.395 0 00.127.264.67.67 0 00.307.131c.121.021.242.042.365.058.389.048.775.078 1.182.084l-1.76 2.104c-.347-.012-.69-.03-1.03-.053a16.52 16.52 0 01-1.032-.101 5.856 5.856 0 01-1.063-.228 2.145 2.145 0 01-.813-.439c-.211-.191-.323-.431-.35-.719s.092-.641.34-1.065a3.47 3.47 0 01.299-.438c.118-.165.263-.339.405-.521l4.402-5.36-2.102-.261 1.558-1.832 2.057.255 2.47-3.043 3.202.403m71.111 8.28l-6.71 8.146 2.104.262-1.874 2.264-2.099-.264-2.601 3.135-3.041-.381 2.593-3.133-7.312-.906 2.026-2.504 13.786-7.004 3.128.385m-51.581 8.523l11.326-13.826 3.205.398-6.182 7.512.021.045 6.762-3.275 3.95.49-7.423 3.257-.574 6.774-3.527-.438.66-4.848-2.371 1.049-2.667 3.254-3.18-.392m49.453 6.42c-.858-.104-1.585-.309-2.193-.595-.598-.291-1.062-.646-1.382-1.069a2.3 2.3 0 01-.48-1.443c-.008-.54.159-1.107.496-1.709a5.45 5.45 0 011.073-1.365 6.258 6.258 0 011.419-.957 7.58 7.58 0 011.672-.591 11.823 11.823 0 011.822-.288l.023-.04a2.072 2.072 0 01-.821-1.188c-.128-.498-.023-1.049.311-1.646a5.449 5.449 0 011.425-1.662 7.634 7.634 0 011.981-1.128 9.187 9.187 0 012.342-.57c.84-.094 1.671-.096 2.497.007.751.093 1.371.281 1.864.553.489.277.853.607 1.091 1.002.242.389.35.83.328 1.311-.014.48-.167.978-.458 1.496-.185.33-.446.657-.785.979-.35.321-.727.604-1.153.86-.423.25-.875.461-1.366.613a5.236 5.236 0 01-1.479.275l-.021.041c.291.107.527.279.719.527.185.239.31.521.374.832.07.318.069.652.007 1.019a3.55 3.55 0 01-.39 1.06 5.866 5.866 0 01-1.61 1.84 8.534 8.534 0 01-2.227 1.215c-.816.308-1.653.506-2.534.611-.884.103-1.734.11-2.545.01m-90.001-13.697c.36.045.741.048 1.147.013a5.1 5.1 0 001.187-.237 4.168 4.168 0 001.062-.524 2.58 2.58 0 00.797-.886c.19-.342.233-.64.117-.89-.117-.25-.323-.479-.625-.684a5.758 5.758 0 00-1.065-.585 32.469 32.469 0 01-1.271-.56 9.451 9.451 0 01-1.227-.666 2.974 2.974 0 01-.896-.879c-.219-.337-.322-.734-.322-1.191.007-.452.183-.987.521-1.595a6.223 6.223 0 011.702-1.968 8.376 8.376 0 012.23-1.184 10.09 10.09 0 012.478-.522 11.679 11.679 0 012.453.038c.823.103 1.562.281 2.195.54.636.258 1.131.604 1.47 1.042.343.445.516.974.513 1.593-.001.619-.229 1.34-.688 2.162l-3.359-.418c.229-.398.359-.741.365-1.032a1.1 1.1 0 00-.23-.741c-.168-.206-.413-.367-.734-.487a4.744 4.744 0 00-1.087-.252 5.926 5.926 0 00-1.06-.033 4.376 4.376 0 00-1.083.182 3.452 3.452 0 00-.96.469 2.416 2.416 0 00-.717.809c-.19.342-.204.649-.05.923.169.269.416.504.744.706.326.208.686.375 1.071.517.39.141.706.254.946.346.547.223 1.028.462 1.454.719.417.263.729.568.938.922.22.349.309.763.271 1.222-.032.467-.229 1.019-.582 1.656a6.712 6.712 0 01-1.82 2.102 8.713 8.713 0 01-2.35 1.263 9.833 9.833 0 01-2.562.549c-.879.07-1.7.055-2.469-.041-2.256-.279-3.706-.894-4.359-1.842-.651-.948-.489-2.296.482-4.039l3.362.417c-.317.505-.487.937-.503 1.293-.024.362.062.658.267.9.203.236.502.428.893.569.385.14.842.24 1.354.304m-46.077.717a1.359 1.359 0 01-.709-.28l-4.797-3.605a.965.965 0 01-.413-.683c-.036-.283.037-.572.205-.873l2.924-5.228c.178-.319.441-.602.798-.842a3.211 3.211 0 011.139-.502l7.479-1.573 2.81-5.025c.182-.318.451-.6.798-.842a3.32 3.32 0 011.142-.503l7.728-1.622c.264-.054.522-.065.778-.033s.473.102.644.209l5.021 3.206c.256.174.415.411.473.703.053.291-.017.599-.191.917l-2.812 5.025 4.871 3.104c.265.175.424.412.474.703.053.291-.018.599-.192.917l-2.924 5.228a2.538 2.538 0 01-.741.806c-.32.238-.678.404-1.065.5l-7.94 2.021a2.352 2.352 0 01-.918.078c-.301-.037-.534-.136-.709-.281l-4.797-3.604-.07-.064-.127.04-7.943 2.023c-.323.088-.63.118-.936.08m-284-57.41l3.684-6.589 2.751.342-3.684 6.589-2.751-.342M715.504 229l3.688-6.589 2.75.342-3.688 6.588-2.75-.341m-478.431-73.506l3.684-6.589 2.751.342-3.684 6.589-2.751-.342m485.8 60.33l3.685-6.589 2.75.342-3.685 6.588-2.75-.341m-491.038-9.492l37.05-66.254 167.331 20.78-37.05 66.253-167.331-20.779m12.606-64.015l3.681-6.583 2.751.342-3.681 6.583-2.751-.342m485.8 60.33l3.682-6.583 2.75.341-3.682 6.583-2.75-.341m-374.656-57.883c-.354-.044-.452-.329-.281-.635.201-.359.652-.612 1.04-.564.372.046.477.319.291.649-.197.353-.636.601-1.05.55m2.634-3.319c-.347-.043-.445-.322-.274-.629.199-.359.644-.613 1.041-.564.372.046.475.319.294.643-.203.359-.648.601-1.061.55m-80.764-6.501l3.625-4.54.893.111-3.609 4.542-.909-.113m36.308 4.509l3.625-4.54.894.11-3.609 4.542-.91-.112m-25.921-3.114c-1.363-.169-1.579-1.062-1.022-2.058.89-1.592 3.039-2.892 4.939-2.656.496.062.871.244.994.34l-.62.604c-.158-.112-.407-.236-.795-.285-1.379-.171-2.909.921-3.524 2.021-.421.752-.25 1.3.609 1.407.545.067 1.031-.027 1.368-.109l-.258.637a4.658 4.658 0 01-1.691.099m-4.151-4.632l.025.003c.829-.597 1.763-.877 2.523-.782.636.079 1.168.485.621 1.464-.117.208-.32.493-.52.74l-2.112 2.654-.9-.112 2.087-2.626c.136-.181.29-.391.403-.594.259-.463.247-.836-.373-.914-.645-.08-1.947.496-2.842 1.623l-1.745 2.204-.893-.111 2.543-3.22a26.36 26.36 0 001.017-1.329l.81.101-.644.899m8.795 5.221c-1.322-.164-1.58-1.125-.991-2.178.865-1.546 2.873-2.813 4.591-2.6 1.429.177 1.539 1.213.989 2.197-.809 1.447-2.804 2.803-4.589 2.581m10.444-2.814c.847-.613 1.725-.888 2.516-.802.611.076 1.095.507.603 1.387-.12.214-.331.528-.535.782l-2.127 2.683-.884-.11 2.075-2.621c.142-.174.304-.402.415-.599.275-.492.247-.836-.348-.91-.652-.081-1.816.499-2.622 1.513l-1.841 2.329-.867-.108 2.118-2.666c.161-.209.283-.38.383-.56.223-.399.327-.82-.334-.902-.653-.081-1.921.591-2.681 1.555l-1.79 2.286-.893-.111 2.551-3.219c.398-.507.737-.955 1-1.331l.801.1-.621.857.025.003c.854-.594 1.707-.841 2.401-.754.808.103.941.608.655 1.198m8.823 1.096c.847-.613 1.725-.888 2.517-.802.611.076 1.096.507.604 1.387-.12.214-.331.528-.526.783l-2.136 2.682-.884-.11 2.075-2.622c.142-.174.304-.401.415-.598.273-.492.247-.836-.342-.909-.659-.082-1.823.498-2.622 1.513l-1.841 2.329-.875-.109 2.117-2.666c.17-.208.283-.38.384-.56.225-.399.334-.819-.334-.902-.651-.081-1.921.591-2.682 1.555l-1.79 2.286-.884-.11 2.542-3.22c.407-.506.735-.955 1.008-1.33l.793.098-.621.858.025.003c.853-.594 1.707-.841 2.407-.753.812.103.936.607.65 1.197m8.247 1.005l.024.003c.837-.596 1.763-.876 2.521-.782.636.079 1.168.486.622 1.464-.117.208-.32.492-.52.74l-2.111 2.654-.901-.112 2.087-2.626c.139-.182.29-.392.403-.594.259-.463.247-.836-.374-.913-.644-.08-1.946.495-2.833 1.623l-1.745 2.205-.898-.112 2.551-3.218c.407-.506.745-.954 1.008-1.33l.812.101-.646.897m3.767 4.48c-1.064-.132-1.179-.988-.713-1.822.884-1.581 3.078-2.992 5.119-2.738.611.076 1.201.316 1.525.542l-2.979 3.76c-.768.963-1.453 1.603-2.232 1.958-.752.334-1.536.36-2.133.287-.644-.08-1.178-.295-1.399-.527l.597-.594c.223.22.688.414 1.233.481.892.111 1.812-.196 2.829-1.426l.563-.679-.022-.003c-.843.607-1.67.851-2.388.761m8.126 1.127c-1.32-.165-1.578-1.125-.989-2.179.862-1.546 2.862-2.814 4.582-2.601 1.429.178 1.539 1.213.987 2.197-.81 1.448-2.805 2.803-4.58 2.583m7.234-3.126l.033.004c.695-.595 1.537-1.01 2.248-.922.083.01.175.034.243.055l-.614.766c-.063-.014-.139-.036-.238-.048-.785-.098-1.957.655-2.796 1.714l-1.587 2.001-.892-.111 2.325-2.93a36.81 36.81 0 001.191-1.623l.793.098c-.222.32-.448.644-.706.996m7.594 4.968c-1.396-.173-1.53-1.1-.956-2.131.79-1.413 2.862-2.858 4.563-2.646 1.008.125 1.255.725.876 1.403-.655 1.172-2.284 1.334-4.13 1.104l-.234-.03c-.155.197-.364.635-.391.904-.03.449.287.705.832.772.619.077 1.181-.027 1.599-.142l-.201.613a5.16 5.16 0 01-1.958.153m6.566-3.209l.033.004c.693-.595 1.527-1.012 2.237-.923.093.011.186.035.251.056l-.612.766c-.063-.014-.147-.037-.238-.048-.793-.098-1.956.655-2.796 1.715l-1.587 2-.895-.111 2.328-2.93c.456-.594.892-1.196 1.184-1.624l.801.1c-.222.318-.456.642-.706.995m-71.086-10.76c-.322-.04-.392-.278-.23-.568.18-.306.574-.504.888-.465.331.041.425.282.264.571a.963.963 0 01-.922.462m36.308 4.509c-.312-.039-.392-.278-.229-.567.18-.306.572-.505.888-.466.331.041.426.282.264.572a.957.957 0 01-.923.461m27.307 4.301l1.715-2.183.898.111-4.156 5.224a20.477 20.477 0 00-1.054 1.454l-.826-.103.658-.909-.022-.003c-.854.606-1.729.894-2.479.801-1.023-.127-1.169-.944-.634-1.899.926-1.656 3.185-3.01 5.052-2.778.339.043.672.158.848.285m367.342 50.547l9.861-5.01-.867-1.736c-.082-.153-.034-.301.142-.459a.667.667 0 01.55-.191l6.188.768c.133.017.229.066.27.151.053.087.035.19-.029.312l-3.06 5.465c-.097.173-.265.283-.482.33a.633.633 0 01-.22.016.277.277 0 01-.232-.171l-.878-1.731-13.449 6.831a.65.65 0 01-.396.087c-.123-.016-.208-.069-.259-.168l-1.678-3.335-8.839 4.493-1.384-2.754 12.438-6.318a.685.685 0 01.394-.082c.123.016.208.069.262.163l1.668 3.339m-461.351-59.906l3.685-6.589 2.751.342-3.685 6.588-2.751-.341m485.799 60.33l3.685-6.588 2.75.341-3.685 6.589-2.75-.342m-45.327 7.305l10.794-19.302 1.826.227-9.896 17.692 27.312 3.392-.9 1.609-29.136-3.618m-433.104-80.812l2.337-4.18 5.965.741-1.078 1.928-3.214-.399-1.259 2.252-2.751-.342m16.568-.351l1.078-1.928 9.352 1.161-1.078 1.928-9.352-1.161m18.695 2.322l1.078-1.928 9.343 1.16-1.078 1.928-9.343-1.16m18.687 2.321l1.078-1.928 9.352 1.161-1.078 1.928-9.352-1.161m18.695 2.322l1.078-1.928 9.343 1.161-1.078 1.928-9.343-1.161m18.687 2.32l1.078-1.928 9.352 1.162-1.076 1.928-9.354-1.162m18.695 2.322l1.078-1.928 9.344 1.16-1.078 1.928-9.344-1.16m18.687 2.32l1.078-1.928 9.354 1.162-1.078 1.928-9.354-1.162m18.694 2.322l1.078-1.928 9.344 1.161-1.078 1.928-9.344-1.161m18.688 2.321l1.075-1.928 9.354 1.161-1.078 1.928-9.351-1.161m18.695 2.321l1.078-1.928 9.343 1.16-1.078 1.928-9.343-1.16m18.686 2.321l1.078-1.928 9.352 1.162-1.078 1.928-9.352-1.162m18.696 2.321l1.078-1.928 9.343 1.16-1.075 1.928-9.346-1.16m18.686 2.321l1.078-1.928 9.352 1.161-1.078 1.928-9.352-1.161m18.695 2.322l1.078-1.928 9.347 1.16-1.078 1.928-9.347-1.16m18.687 2.321l1.078-1.928 9.352 1.161-1.078 1.928-9.352-1.161m18.695 2.321l1.078-1.928 9.344 1.16-1.078 1.928-9.344-1.16m18.687 2.321l1.078-1.928 9.353 1.161-1.075 1.928-9.356-1.161m18.695 2.322l1.078-1.928 9.343 1.161-1.078 1.928-9.343-1.161m18.688 2.32l1.078-1.928 9.354 1.162-1.078 1.928-9.354-1.162m18.694 2.322l1.078-1.928 9.344 1.16-1.078 1.928-9.344-1.16m18.687 2.321l1.075-1.928 9.354 1.162-1.078 1.928-9.351-1.162m18.695 2.321l1.078-1.928 9.344 1.161-1.078 1.928-9.344-1.161m18.686 2.321l1.078-1.928 9.344 1.16-1.078 1.928-9.344-1.16m18.696 2.321l1.078-1.928 9.343 1.16-1.075 1.928-9.346-1.16m18.687 2.321l1.078-1.928 9.343 1.161-1.078 1.928-9.343-1.161m18.695 2.322l1.075-1.928 5.966.741-2.34 4.18-2.75-.342 1.262-2.252-3.213-.399m-375.594-74.01l8.369-14.966 4.651.577-8.369 14.966-4.651-.577m50.336 6.251l8.369-14.966 4.651.577-8.369 14.966-4.651-.577m37.564 1.631c1.271.158 2.377-.064 3.319-.659.934-.596 1.834-1.655 2.686-3.177l4.388-7.845 4.651.578-8.37 14.966-4.428-.55 1.166-2.084-.091-.011c-1.081.794-2.19 1.325-3.352 1.596s-2.224.343-3.207.221c-1.248-.155-2.188-.427-2.822-.815-.639-.389-1.035-.878-1.191-1.467-.168-.584-.127-1.273.118-2.06.231-.782.613-1.639 1.134-2.565l5.146-9.206 4.651.578-4.727 8.453c-.689 1.233-.982 2.181-.887 2.843.103.663.7 1.065 1.816 1.204m-71.091-8.303c.331.042.688.049 1.091.024.397-.018.783-.088 1.161-.196s.725-.269 1.059-.488c.331-.213.604-.507.806-.872.349-.62.145-1.14-.617-1.563-.754-.421-1.875-.895-3.365-1.408a16.584 16.584 0 01-1.714-.727c-.544-.259-.979-.573-1.313-.937a2.12 2.12 0 01-.583-1.28c-.053-.489.109-1.063.477-1.718.541-.967 1.194-1.728 1.963-2.295a8.319 8.319 0 012.504-1.255c.898-.266 1.827-.423 2.784-.459s1.888.005 2.805.12c.917.114 1.767.3 2.547.564.772.263 1.396.619 1.868 1.068.473.449.763 1.005.877 1.669.106.663-.06 1.466-.487 2.403l-4.428-.55c.377-.802.337-1.376-.116-1.735-.456-.354-1.097-.583-1.931-.686-.257-.032-.552-.056-.874-.065s-.63.021-.941.087c-.303.067-.595.18-.867.338a1.872 1.872 0 00-.681.708c-.204.365-.224.685-.04.955.176.27.471.504.876.709.415.207.902.41 1.475.604.562.194 1.137.401 1.723.616.604.218 1.17.468 1.708.739s.965.596 1.291.978c.326.381.507.831.551 1.337.04.513-.138 1.116-.525 1.811-.552.984-1.233 1.778-2.053 2.389a9.381 9.381 0 01-2.649 1.392c-.954.315-1.932.497-2.955.543a17 17 0 01-2.975-.103 13.434 13.434 0 01-2.735-.619c-.846-.291-1.519-.684-2.02-1.179a3.059 3.059 0 01-.908-1.834c-.1-.725.11-1.59.631-2.597l4.428.55c-.25.446-.361.834-.332 1.178.028.344.155.639.372.882.209.243.505.44.871.591a4.71 4.71 0 001.241.311m31.882-6.566l.063.008a10.055 10.055 0 011.606-1.181c.592-.347 1.209-.63 1.847-.854.636-.218 1.27-.369 1.908-.457a6.946 6.946 0 011.831-.02c.306.038.619.126.935.271l-2.137 3.821a7.523 7.523 0 00-.727-.202 8.85 8.85 0 00-.861-.15c-.859-.107-1.648-.068-2.375.107a6.423 6.423 0 00-2.002.847 7.247 7.247 0 00-1.62 1.427c-.479.56-.905 1.175-1.284 1.853l-3.771 6.745-4.651-.578 8.369-14.966 4.419.549-1.55 2.78m68.581 21.953c-1.338-.166-2.432-.506-3.293-1.016-.855-.509-1.466-1.154-1.821-1.941-.354-.787-.462-1.686-.326-2.703.14-1.017.522-2.102 1.17-3.26a13.047 13.047 0 012.376-3.048 13.912 13.912 0 013.169-2.288 14.403 14.403 0 013.664-1.322 11.637 11.637 0 013.868-.17c1.438.178 2.56.577 3.355 1.203.79.624 1.302 1.399 1.521 2.312.231.915.195 1.925-.091 3.023-.287 1.097-.801 2.222-1.539 3.369l-12.219-1.517c-.679 1.34-.839 2.354-.471 3.037.358.683 1.197 1.109 2.514 1.272a5.88 5.88 0 002.771-.324c.907-.327 1.566-.716 1.982-1.16l4.098.509c-1.664 1.712-3.383 2.874-5.168 3.476s-3.643.786-5.56.548m22.425-10.651l.065.008a9.653 9.653 0 011.604-1.182 10.638 10.638 0 011.847-.854c.638-.219 1.27-.369 1.899-.458a7.012 7.012 0 011.84-.019c.305.038.618.126.927.27l-2.137 3.821a8.39 8.39 0 00-1.588-.352c-.854-.105-1.641-.067-2.375.107a6.464 6.464 0 00-1.994.849 7.317 7.317 0 00-1.62 1.427 11.55 11.55 0 00-1.283 1.853l-3.771 6.745-4.651-.578 8.369-14.966 4.42.549-1.552 2.78m-108.52-13.508l1.538-2.75 2.817.35 2.509-4.486 4.66.578-2.509 4.487 3.404.423-1.538 2.75-3.403-.422-4.146 7.41c-.389.695-.521 1.173-.389 1.438.135.265.59.445 1.375.542.268.033.527.053.776.065.25.013.497.012.731-.001l-1.778 3.184c-.432.008-.893-.005-1.378-.047a36.818 36.818 0 01-1.422-.146c-.728-.09-1.379-.221-1.975-.388s-1.072-.405-1.42-.715c-.357-.311-.544-.718-.566-1.216-.028-.499.169-1.124.592-1.877l4.937-8.829-2.815-.35m72.195 8.966l1.538-2.75 2.817.35 2.509-4.487 4.647.578-2.509 4.486 3.412.424-1.538 2.75-3.412-.424-4.144 7.411c-.389.694-.519 1.174-.381 1.438.135.264.591.445 1.376.542.264.033.523.053.773.066.249.012.496.012.733-.002l-1.78 3.184c-.429.009-.89-.005-1.378-.047a36.762 36.762 0 01-1.421-.146 13.365 13.365 0 01-1.975-.388c-.599-.167-1.071-.406-1.42-.715-.356-.31-.546-.717-.566-1.215-.029-.499.17-1.125.591-1.877l4.938-8.829-2.81-.349m-127.296-2.744l11.558-20.668 10.098 1.254c1.503.187 2.788.575 3.849 1.159 1.069.585 1.836 1.361 2.312 2.331.474.969.625 2.121.448 3.461-.175 1.34-.745 2.867-1.708 4.586a20.558 20.558 0 01-2.982 4.087c-1.15 1.219-2.426 2.237-3.828 3.054s-2.917 1.408-4.533 1.771c-1.62.368-3.322.441-5.114.219l-10.1-1.254m33.588-14.311l1.896-3.387 4.649.578-1.894 3.387-4.651-.578m50.336 6.251l1.896-3.387 4.648.578-1.894 3.387-4.65-.578m-1.345 18.315l11.558-20.668 4.659.579-4.208 7.526.066.008a8.52 8.52 0 013.253-1.41c1.172-.232 2.281-.287 3.33-.156a5.569 5.569 0 012.27.777c.654.41 1.144.978 1.445 1.697.312.72.394 1.603.261 2.645-.144 1.047-.598 2.254-1.365 3.626-.767 1.372-1.634 2.527-2.601 3.466-.979.943-1.972 1.693-2.997 2.247-1.017.555-2.034.937-3.032 1.141-1.006.203-1.936.255-2.787.149-1.247-.155-2.265-.467-3.046-.936-.789-.469-1.202-1.152-1.243-2.042l-.063-.008-1.068 1.911-4.432-.552M290.212 84.42l-7.232-4.415c-.463-.262-.562-.67-.292-1.231.268-.542.739-.911 1.402-1.102l49.096-14.725c.291-.094.575-.126.841-.094.306.038.534.147.698.329.322.387.29.841-.104 1.374l-23.303 30.422c-.295.385-.711.655-1.244.818a1.934 1.934 0 01-.801.074 1.305 1.305 0 01-.499-.167l-8.303-5.043-8.896 5.291c-.456.278-.915.388-1.394.328a1.099 1.099 0 01-.458-.144.84.84 0 01-.437-.562c-.047-.248.001-.508.15-.774l3.959-7.08 31.855-19.015-35.038 15.716m502.051 21.094L297.054 44.016c-8.046-1-17.794 3.951-21.767 11.054l-59.092 105.67-53.478 95.631-1.078 1.928-30.245 54.085c-3.973 7.104-.668 13.675 7.379 14.675l24.238 3.01 470.971 58.488c8.036.998 17.783-3.951 21.759-11.057l137.673-246.191 6.22-11.122c3.972-7.104.667-13.675-7.371-14.673"/><path clip-path="url(#b)" fill="#0078BD" d="M235.672 204.747l34.895-62.399 161.82 20.096-34.895 62.399-161.82-20.096m200.544-43.889l-167.331-20.78-37.05 66.254 167.331 20.779 37.05-66.253M185.262 293.564l34.891-62.396 164.035 20.371-34.891 62.396-164.035-20.371m200.007-43.957l-166.785-20.711-37.054 66.261 169.536 21.054-2.751-.342 37.054-66.262"/><path clip-path="url(#b)" fill="#FFF" d="M382.891 289.037l18.443-9.622a4.57 4.57 0 012.611-.483c.583.071 1.099.274 1.444.604.847.798.396 2.042-1.003 2.772l-21.746 11.349a4.585 4.585 0 01-2.492.493h-.012l-.103-.012h-.002-.002a1.549 1.549 0 00-.115-.019c-.678-.104-1.24-.392-1.538-.82l-.014-.021c-.01-.014-.021-.028-.027-.043-.014-.022-.027-.047-.041-.068l-.001-.004c-.013-.021-.023-.047-.036-.071l-3.519-7.444c-.453-.959.456-2.143 2.022-2.641a4.502 4.502 0 011.901-.191c.825.104 1.496.463 1.76 1.023l2.47 5.198m42.264-32.408l-38.208-4.745-34.893 62.394 38.208 4.746 34.893-62.395"/><path clip-path="url(#b)" fill="#0078BD" d="M352.056 314.277l34.893-62.396 38.208 4.745-34.893 62.395-38.208-4.744m76.931-59.24l-43.72-5.43-37.054 66.261 2.751.342 40.967 5.088 37.056-66.261"/><path clip-path="url(#b)" fill="gray" d="M350.786 93.484l7.285-13.026 3.668.456c1.264.157 2.242.445 2.932.872.681.425 1.116.975 1.312 1.636.187.661.166 1.426-.072 2.294-.247.867-.659 1.825-1.241 2.867-.638 1.141-1.341 2.082-2.104 2.834-.774.752-1.568 1.334-2.39 1.759a7.993 7.993 0 01-2.459.828 8.459 8.459 0 01-2.343.05l-4.588-.57m14.37-16.232l-10.098-1.254L343.5 96.666l10.095 1.253c1.792.223 3.495.149 5.114-.219a15.889 15.889 0 004.533-1.771 17.01 17.01 0 003.828-3.054 20.547 20.547 0 002.982-4.087c.961-1.72 1.532-3.246 1.708-4.586.178-1.34.024-2.492-.448-3.461-.476-.969-1.241-1.746-2.312-2.331-1.056-.583-2.34-.972-3.844-1.158M380.447 85.249l-4.651-.577-8.369 14.966 4.651.578 8.369-14.967m3.189-5.702l-4.649-.578-1.896 3.387 4.651.577 1.894-3.386M391.29 86.163a17.477 17.477 0 00-2.805-.12c-.957.036-1.886.193-2.784.459a8.33 8.33 0 00-2.504 1.255c-.77.567-1.423 1.328-1.963 2.295-.366.654-.528 1.229-.477 1.718.05.496.244.922.583 1.28.336.364.771.678 1.313.937.541.266 1.109.51 1.714.727 1.489.513 2.61.987 3.365 1.408.762.423.966.943.617 1.563a2.411 2.411 0 01-.806.872c-.334.219-.681.38-1.059.488a5.1 5.1 0 01-1.161.196 5.79 5.79 0 01-1.091-.024 4.926 4.926 0 01-1.249-.31c-.366-.15-.662-.348-.871-.591a1.453 1.453 0 01-.372-.882c-.029-.344.083-.732.332-1.178l-4.429-.55c-.52 1.007-.729 1.872-.631 2.597.101.724.4 1.337.909 1.834.5.495 1.173.889 2.02 1.179.844.291 1.754.497 2.735.619.958.119 1.954.156 2.975.103a10.958 10.958 0 002.955-.543 9.381 9.381 0 002.649-1.392c.818-.61 1.501-1.405 2.051-2.389.391-.695.567-1.298.527-1.811a2.306 2.306 0 00-.551-1.337c-.326-.381-.753-.707-1.291-.978s-1.104-.521-1.708-.739a87.895 87.895 0 00-1.724-.616c-.57-.194-1.06-.397-1.474-.604-.407-.205-.7-.44-.876-.709-.184-.27-.165-.59.04-.955.171-.307.401-.544.679-.708.274-.158.566-.271.869-.338.312-.067.619-.096.941-.087s.617.033.874.065c.834.104 1.475.332 1.931.686.453.359.494.934.116 1.735l4.428.55c.429-.938.595-1.74.487-2.403a2.908 2.908 0 00-.877-1.669c-.476-.449-1.097-.805-1.868-1.068a12.493 12.493 0 00-2.539-.565M410.127 84.137l-4.66-.578-2.509 4.486-2.817-.35-1.535 2.75 2.814.35-4.937 8.829c-.421.753-.621 1.378-.592 1.877.022.498.208.905.566 1.216.348.31.824.548 1.42.715s1.247.297 1.977.388c.452.057.932.104 1.42.146.485.042.947.056 1.378.047l1.778-3.184a6.596 6.596 0 01-.731.001 10.727 10.727 0 01-.776-.065c-.785-.098-1.24-.278-1.375-.542s0-.743.391-1.438l4.145-7.41 3.403.422 1.538-2.75-3.404-.423 2.506-4.487M423.376 90.147a6.946 6.946 0 00-1.831.02 10.098 10.098 0 00-5.361 2.492l-.063-.008 1.554-2.779-4.419-.549-8.369 14.966 4.651.578 3.771-6.745a11.62 11.62 0 011.284-1.853 7.288 7.288 0 011.62-1.427 6.464 6.464 0 012.002-.847c.729-.176 1.519-.214 2.375-.107.281.035.564.083.861.15.29.067.523.134.727.202l2.14-3.821a3.25 3.25 0 00-.942-.272M430.783 91.5l-4.651-.577-8.369 14.966 4.651.578 8.369-14.967m3.189-5.702l-4.648-.578-1.896 3.387 4.651.578 1.893-3.387M436.047 105.28c-.678-.084-1.198-.292-1.548-.613a2.023 2.023 0 01-.658-1.209c-.081-.486-.036-1.026.142-1.623a8.362 8.362 0 01.771-1.824c.356-.637.771-1.235 1.251-1.795.473-.56.998-1.04 1.577-1.445s1.188-.707 1.84-.905a4.697 4.697 0 011.985-.168c.691.086 1.217.288 1.564.61a2.1 2.1 0 01.642 1.212c.07.486.024 1.025-.142 1.624a8.97 8.97 0 01-.789 1.852c-.347.62-.763 1.206-1.232 1.766a8.745 8.745 0 01-1.577 1.445 6.685 6.685 0 01-1.82.901 4.74 4.74 0 01-2.006.172m6.252-18.448l-4.659-.579-11.558 20.668 4.428.55 1.068-1.911.064.008c.041.89.454 1.573 1.242 2.042.781.469 1.799.781 3.046.936.854.106 1.781.054 2.787-.149.998-.204 2.018-.586 3.032-1.141 1.025-.554 2.021-1.303 2.997-2.247.966-.939 1.833-2.094 2.601-3.466.771-1.372 1.224-2.579 1.365-3.626.132-1.042.052-1.925-.261-2.645a3.64 3.64 0 00-1.445-1.697 5.563 5.563 0 00-2.27-.777c-1.049-.13-2.157-.076-3.33.156a8.514 8.514 0 00-3.253 1.41l-.066-.008 4.212-7.524M470.371 96.417l-4.651-.578-4.388 7.845c-.852 1.522-1.752 2.581-2.686 3.177-.942.595-2.05.817-3.319.659-1.115-.139-1.712-.541-1.812-1.203-.098-.662.194-1.61.887-2.843l4.727-8.453-4.651-.578-5.146 9.206c-.52.926-.9 1.783-1.134 2.565-.246.787-.286 1.475-.118 2.06.156.589.555 1.078 1.191 1.467.634.388 1.575.66 2.822.815.983.122 2.048.05 3.207-.221 1.158-.271 2.271-.802 3.352-1.596l.091.011-1.166 2.084 4.428.55 8.366-14.967M482.312 93.102l-4.649-.578-2.509 4.487-2.817-.35-1.538 2.75 2.817.35-4.938 8.829c-.421.753-.62 1.378-.591 1.877.022.498.21.905.566 1.215.349.31.821.548 1.42.715.596.167 1.247.297 1.975.388.454.056.935.103 1.421.146.488.042.949.056 1.378.047l1.78-3.184a6.83 6.83 0 01-.73.002c-.25-.013-.516-.033-.776-.066-.785-.097-1.241-.277-1.376-.542s-.008-.744.381-1.438l4.145-7.411 3.411.424 1.538-2.75-3.412-.424 2.504-4.487M485.994 104.641c.179-.288.438-.608.766-.958.319-.35.723-.672 1.202-.965a6.122 6.122 0 011.646-.681c.606-.16 1.291-.193 2.032-.101 1.134.141 1.83.519 2.082 1.125.265.608.206 1.45-.161 2.519l-7.567-.939m7.512-5.785a11.61 11.61 0 00-3.868.17 14.338 14.338 0 00-3.664 1.322 13.868 13.868 0 00-3.169 2.288 13.047 13.047 0 00-2.376 3.048c-.646 1.158-1.032 2.243-1.17 3.26-.136 1.017-.028 1.916.326 2.703s.966 1.433 1.821 1.941c.86.51 1.955.85 3.293 1.016 1.917.238 3.774.054 5.562-.547 1.785-.602 3.504-1.763 5.168-3.476l-4.098-.509c-.416.444-1.075.833-1.982 1.16a5.862 5.862 0 01-2.771.324c-1.313-.163-2.152-.589-2.516-1.272-.366-.683-.206-1.697.473-3.037l12.219 1.517c.738-1.146 1.252-2.271 1.539-3.369.286-1.098.322-2.108.091-3.023-.223-.913-.731-1.688-1.521-2.312-.801-.626-1.92-1.025-3.357-1.204M514.382 101.449a7.012 7.012 0 00-1.84.019 10.106 10.106 0 00-3.746 1.312 9.41 9.41 0 00-1.604 1.182l-.065-.008 1.554-2.779-4.42-.549-8.369 14.966 4.651.578 3.771-6.745a11.54 11.54 0 011.281-1.853 7.333 7.333 0 011.62-1.427 6.544 6.544 0 011.994-.849c.734-.175 1.523-.213 2.375-.107a8.39 8.39 0 011.588.352l2.137-3.821a3.07 3.07 0 00-.927-.271"/><g clip-path="url(#b)" fill="#0078BD"><path d="M640.887 367.693l-2.75-.341-1.26 2.252-3.214-.4-1.078 1.929 5.964.74 2.338-4.18M175.737 312.336l-9.352-1.162-1.078 1.928 9.352 1.162 1.078-1.928m18.686 2.321l-9.343-1.161-1.078 1.928 9.343 1.16 1.078-1.927m18.696 2.322l-9.352-1.16-1.078 1.93 9.352 1.161 1.078-1.931m18.687 2.321l-9.344-1.161-1.078 1.93 9.344 1.16 1.078-1.929m18.694 2.321l-9.352-1.161-1.078 1.929 9.352 1.16 1.078-1.928m18.688 2.32l-9.344-1.16-1.078 1.928 9.344 1.161 1.078-1.929m18.694 2.323l-9.352-1.162-1.078 1.932 9.352 1.16 1.078-1.93m18.687 2.32l-9.344-1.16-1.078 1.928 9.344 1.16 1.078-1.928m18.695 2.32l-9.352-1.16-1.078 1.928 9.352 1.162 1.078-1.93m18.687 2.323l-9.343-1.16-1.078 1.931 9.343 1.16 1.078-1.931m18.695 2.321l-9.354-1.161-1.078 1.93 9.354 1.16 1.078-1.929m18.687 2.32l-9.343-1.16-1.078 1.929 9.343 1.16 1.078-1.929m18.695 2.321l-9.354-1.16-1.078 1.928 9.354 1.161 1.078-1.929m18.687 2.322l-9.344-1.159-1.078 1.928 9.344 1.16 1.078-1.929m18.695 2.322l-9.354-1.162-1.076 1.929 9.352 1.162 1.078-1.929m18.687 2.319l-9.343-1.159-1.078 1.928 9.343 1.16 1.078-1.929m18.695 2.323l-9.352-1.16-1.078 1.93 9.352 1.16 1.078-1.93m18.687 2.321l-9.343-1.161-1.078 1.93 9.346 1.16 1.075-1.929m18.695 2.321l-9.352-1.161-1.078 1.928 9.352 1.161 1.078-1.928m18.687 2.321l-9.348-1.158-1.076 1.929 9.346 1.161 1.078-1.932m18.695 2.322l-9.352-1.162-1.078 1.93 9.354 1.162 1.076-1.93m18.686 2.32l-9.343-1.16-1.078 1.928 9.343 1.16 1.078-1.928m18.696 2.32l-9.352-1.16-1.078 1.928 9.354 1.162 1.076-1.93m18.686 2.323l-9.343-1.16-1.078 1.931 9.343 1.159 1.078-1.93m18.695 2.321l-9.354-1.161-1.078 1.928 9.354 1.162 1.078-1.929M155.087 307.364l-2.751-.343-2.337 4.181 5.964.741 1.079-1.927-3.214-.4 1.259-2.252M162.456 294.188l-2.751-.342-3.685 6.588 2.751.342 3.685-6.588m7.368-13.178l-2.751-.342-3.684 6.588 2.751.342 3.684-6.588m7.369-13.177l-2.751-.342-3.685 6.589 2.751.341 3.685-6.588m7.369-13.177l-2.751-.342-3.685 6.588 2.751.343 3.685-6.589m7.369-13.177l-2.751-.34-3.685 6.588 2.751.342 3.685-6.59m7.365-13.17l-2.751-.342-3.681 6.583 2.751.343 3.681-6.584m7.369-13.178l-2.751-.342-3.684 6.588 2.751.342 3.684-6.588m7.368-13.176l-2.751-.342-3.685 6.588 2.751.342 3.685-6.588m7.369-13.177l-2.751-.342-3.685 6.588 2.751.342 3.685-6.588m7.369-13.177l-2.751-.342-3.684 6.588 2.751.342 3.684-6.588m7.368-13.177l-2.751-.342-3.684 6.589 2.751.342 3.684-6.589m7.369-13.177l-2.751-.342-3.684 6.589 2.751.342 3.684-6.589m7.366-13.171l-2.751-.342-3.681 6.583 2.751.342 3.681-6.583m7.368-13.177l-2.751-.342-3.685 6.589 2.751.341 3.685-6.588M267.478 112.53l-5.965-.74-2.338 4.179 2.751.342 1.26-2.252 3.213.399 1.079-1.928M286.173 114.852l-9.352-1.161-1.078 1.928 9.352 1.162 1.078-1.929m18.686 2.32l-9.343-1.16-1.078 1.928 9.343 1.161 1.078-1.929m18.696 2.322l-9.352-1.161-1.078 1.928 9.352 1.161 1.078-1.928m18.686 2.321l-9.343-1.161-1.078 1.928 9.343 1.16 1.078-1.927m18.697 2.322l-9.353-1.162-1.078 1.928 9.354 1.162 1.077-1.928m18.686 2.32l-9.344-1.16-1.078 1.928 9.344 1.16 1.078-1.928m18.694 2.322l-9.354-1.162-1.078 1.928 9.354 1.161 1.078-1.927m18.687 2.321l-9.344-1.161-1.078 1.928 9.344 1.16 1.078-1.927m18.695 2.321l-9.354-1.161-1.078 1.928 9.354 1.162 1.078-1.929m18.687 2.321l-9.343-1.16-1.078 1.928 9.343 1.16 1.078-1.928m18.695 2.321l-9.352-1.162-1.078 1.928 9.352 1.161 1.078-1.927m18.688 2.321l-9.344-1.16-1.078 1.928 9.346 1.161 1.076-1.929m18.694 2.322l-9.352-1.161-1.078 1.928 9.352 1.162 1.078-1.929m18.687 2.32l-9.347-1.16-1.077 1.928 9.346 1.16 1.078-1.928m18.695 2.322l-9.352-1.161-1.078 1.928 9.352 1.161 1.078-1.928m18.687 2.32l-9.344-1.16-1.078 1.928 9.344 1.161 1.078-1.929m18.696 2.322l-9.353-1.161-1.078 1.928 9.354 1.161 1.077-1.928m18.685 2.321l-9.343-1.161-1.078 1.928 9.343 1.16 1.078-1.927m18.695 2.322l-9.354-1.162-1.078 1.928 9.354 1.161 1.078-1.927m18.688 2.32l-9.344-1.16-1.078 1.928 9.344 1.161 1.078-1.929m18.694 2.322l-9.354-1.162-1.078 1.928 9.354 1.161 1.078-1.927m18.688 2.321l-9.344-1.161-1.078 1.928 9.344 1.16 1.078-1.927m18.686 2.32l-9.344-1.16-1.078 1.928 9.344 1.161 1.078-1.929m18.695 2.322l-9.343-1.16-1.078 1.928 9.346 1.16 1.075-1.928m18.687 2.321l-9.343-1.161-1.078 1.928 9.343 1.16 1.078-1.927M750.062 172.46l-5.962-.74-1.079 1.928 3.213.399-1.258 2.252 2.75.342 2.336-4.181M648.255 354.516l-2.75-.341-3.684 6.589 2.75.342 3.684-6.59m7.369-13.176l-2.75-.342-3.685 6.588 2.75.342 3.685-6.588m7.368-13.178l-2.75-.342-3.688 6.589 2.75.342 3.688-6.589m7.369-13.178l-2.75-.342-3.688 6.59 2.75.342 3.688-6.59m7.368-13.175l-2.75-.342-3.685 6.59 2.75.342 3.685-6.59m7.366-13.17l-2.75-.342-3.681 6.583 2.75.341 3.681-6.582m7.369-13.179l-2.75-.341-3.685 6.588 2.75.342 3.685-6.589m7.369-13.176l-2.75-.341-3.685 6.588 2.75.342 3.685-6.589m7.368-13.177l-2.75-.342-3.688 6.588 2.75.342 3.688-6.588m7.368-13.177l-2.75-.341-3.687 6.588 2.75.341 3.687-6.588m7.369-13.177l-2.75-.342-3.684 6.589 2.75.341 3.684-6.588m7.37-13.176l-2.75-.342-3.685 6.589 2.75.341 3.685-6.588m7.365-13.172l-2.75-.341-3.682 6.583 2.75.341 3.682-6.583m7.368-13.176l-2.75-.341-3.685 6.588 2.75.342 3.685-6.589"/></g><g clip-path="url(#b)" fill="#CE4E27"><path d="M390.128 169.381l2.577-.894.619 1.136-1.995.692-20.734 37.078 1.05.873-1.634.93-1.776-1.478-89.189-11.076-3.05.872-.46-1.184 1.83-.524 20.73-37.07-1.013-1.065 1.727-.844 1.308 1.376 90.01 11.178m4.164-.858l-96.903-12.034-22.906 40.96 96.904 12.034 22.905-40.96"/><path d="M298.808 156.827l-1.727.844 1.013 1.065 23.27 24.486 1.264-.361.457 1.189-.734.21 6.735 7.086.863-.422-.31-.568.778-.27-30.301-31.883-1.308-1.376"/><path d="M392.705 168.487l-2.577.894-59.711 20.705-.778.27.31.568.31.568 13.016-4.513-.594-.495 1.633-.93.904.751 46.111-15.99 1.995-.692-.619-1.136"/><path d="M344.314 185.554l-1.633.93.594.495 24.957 20.739 1.779 1.477 1.634-.929-1.05-.873-25.377-21.088-.904-.751M322.628 182.861l-1.264.361-44.001 12.584-1.829.524.46 1.184 3.049-.872 43.308-12.382.734-.21-.457-1.189"/></g><path clip-path="url(#b)" d="M228.996 223.211c-.76-.095-.932-.704-.508-1.462.599-1.071 2.038-2.205 3.169-2.065.95.118.812.918.51 1.457-.607 1.088-2.097 2.203-3.171 2.07m3.117-4.151c-1.71-.212-3.718 1.055-4.583 2.601-.586 1.048-.328 2.009.994 2.173 1.776.221 3.768-1.129 4.577-2.577.551-.985.441-2.02-.988-2.197M239.911 220.14l-.909-.113-1.853 2.333c-.785.992-2.013 1.576-2.673 1.494-.62-.077-.65-.434-.381-.914.114-.203.273-.425.468-.679l2.019-2.535-.9-.112-2.052 2.562a6.15 6.15 0 00-.542.781c-.593 1.06-.036 1.438.65 1.523.694.086 1.59-.205 2.401-.754l.024.003-.624.863.81.101c.274-.381.585-.825 1-1.331l2.562-3.222M243.46 219.385l-1.089.131-.667.846-.752-.093-.485.615.752.093-1.833 2.298c-.27.326-.458.581-.61.853-.269.48-.186.949.607 1.048.264.033.553.038.75 0l.395-.626a1.955 1.955 0 01-.453-.013c-.347-.043-.398-.235-.243-.513.136-.243.313-.481.525-.733l1.745-2.204 1.264.157.501-.612-1.272-.158.865-1.089M243.685 224.923c-.81-.1-.699-.725-.391-1.244.644-1.152 2.245-2.26 3.566-2.096.372.046.653.174.792.26l-1.213 1.521c-.707.885-1.978 1.656-2.754 1.559m3.703-3.966c-2.041-.253-4.235 1.158-5.119 2.738-.463.828-.361 1.689.713 1.823.719.088 1.547-.162 2.391-.769l.017.002-.568.685c-1.012 1.224-1.929 1.539-2.83 1.425-.545-.067-1.011-.262-1.221-.485l-.609.601c.224.231.76.44 1.405.521.603.075 1.378.047 2.135-.28.782-.354 1.466-.993 2.229-1.964l2.974-3.754c-.316-.227-.906-.468-1.517-.543M249.591 225.77c-.768-.097-.939-.706-.516-1.461.599-1.071 2.037-2.206 3.178-2.064.949.118.803.917.502 1.456-.609 1.085-2.098 2.199-3.164 2.069m3.117-4.153c-1.719-.213-3.726 1.054-4.59 2.6-.586 1.048-.328 2.01.994 2.174 1.784.221 3.776-1.126 4.585-2.577.55-.984.44-2.02-.989-2.197M257.259 222.294l-.9-.112-3.629 4.544.909.111 3.62-4.543m.875-1.848c-.314-.039-.708.16-.888.465-.162.29-.083.528.23.567.363.045.737-.15.932-.466.162-.289.056-.525-.274-.566M261.522 222.712c-.768-.096-1.691.18-2.531.781l-.025-.003.647-.904-.81-.1c-.267.381-.594.824-1.009 1.33l-2.554 3.224.9.112 1.749-2.21c.887-1.128 2.186-1.697 2.83-1.617.628.078.64.451.381.914a5.22 5.22 0 01-.399.588l-2.09 2.631.893.11 2.123-2.657c.189-.243.392-.528.512-.742.544-.973.011-1.379-.617-1.457M263.446 227.377c-.81-.102-.699-.725-.392-1.244.644-1.152 2.245-2.26 3.566-2.096.372.046.646.173.792.26l-1.212 1.521c-.707.885-1.978 1.657-2.754 1.559m3.702-3.967c-2.049-.254-4.234 1.158-5.118 2.738-.463.828-.362 1.688.704 1.822.727.09 1.556-.16 2.399-.77l.017.002-.568.688c-1.012 1.224-1.938 1.534-2.829 1.426-.545-.068-1.011-.262-1.221-.486l-.609.6c.224.232.761.441 1.405.521.603.074 1.378.047 2.135-.28.782-.354 1.466-.994 2.229-1.964l2.974-3.754c-.316-.226-.906-.467-1.518-.543M271.334 228.469c-.76-.094-.932-.703-.507-1.462.599-1.071 2.037-2.205 3.169-2.065.95.118.812.919.511 1.457-.609 1.087-2.099 2.203-3.173 2.07m3.117-4.152c-1.71-.212-3.718 1.055-4.582 2.601-.586 1.047-.328 2.008.994 2.172 1.776.221 3.776-1.128 4.585-2.574.551-.985.441-2.02-.997-2.199M280.375 225.053c-.71-.088-1.549.322-2.244.918l-.033-.005c.255-.346.482-.671.715-.994l-.801-.1c-.301.427-.729 1.036-1.194 1.628l-2.327 2.932.9.111 1.587-2.001c.832-1.062 2.003-1.813 2.788-1.716.099.013.187.029.247.05l.617-.772c-.072-.016-.164-.04-.255-.051M280.242 229.557c-.776-.098-.669-.716-.359-1.271.696-1.245 2.35-2.321 3.622-2.163.38.047.637.172.746.311l-1.26 1.59c-.818 1.017-2.055 1.619-2.749 1.533m7.157-5.849l-.893-.111-1.721 2.176c-.18-.121-.512-.237-.851-.279-1.867-.232-4.115 1.117-5.044 2.779-.534.955-.395 1.765.629 1.892.76.095 1.625-.188 2.485-.793l.017.002-.659.909.826.103c.286-.446.681-.979 1.055-1.46l4.156-5.218M286.49 228.062c-.078-.013-.157-.021-.236-.031.639-.701 1.701-1.368 2.56-1.262.488.062.69.313.48.689-.388.696-1.49.767-2.804.604m2.806-1.901c-1.702-.211-3.773 1.233-4.56 2.641-.579 1.036-.44 1.958.956 2.132a5.295 5.295 0 001.955-.146l.201-.613c-.415.11-.971.222-1.599.144-.545-.066-.862-.323-.829-.776.023-.265.233-.702.388-.899.079.013.156.021.234.031 1.846.229 3.475.066 4.133-1.111.377-.677.13-1.278-.879-1.403M294.534 226.812c-.71-.088-1.549.318-2.244.916l-.033-.004c.255-.349.481-.674.707-.996l-.793-.102c-.3.43-.738 1.035-1.193 1.629l-2.328 2.932.893.109 1.587-2.001c.84-1.062 2.012-1.812 2.797-1.714.099.012.178.025.238.048l.617-.771c-.073-.012-.165-.036-.248-.046M295.312 230.839c-.388-.048-.839.206-1.04.563-.172.308-.063.587.284.63.413.052.849-.191 1.05-.55.181-.324.078-.596-.294-.643m2.639-3.314c-.397-.049-.84.207-1.037.56-.175.313-.074.591.272.636.421.051.858-.189 1.059-.551.185-.33.078-.597-.294-.645M281.973 130.515l-.893-.111-3.625 4.54.909.113 3.609-4.542m.885-1.853c-.314-.039-.708.16-.888.465-.162.29-.092.528.23.568a.963.963 0 00.921-.462c.163-.289.068-.53-.263-.571M286.239 130.927c-.76-.095-1.694.188-2.523.782l-.025-.003.644-.898-.81-.101c-.271.375-.602.823-1.017 1.329l-2.543 3.22.893.111 1.745-2.204c.895-1.127 2.197-1.702 2.842-1.623.62.077.632.45.373.914a5.478 5.478 0 01-.403.594l-2.087 2.626.9.112 2.112-2.654c.2-.248.403-.532.52-.74.547-.979.015-1.386-.621-1.465M291.759 131.625c-1.9-.236-4.049 1.063-4.939 2.656-.557.996-.341 1.889 1.022 2.058a4.648 4.648 0 001.69-.099l.258-.637c-.337.082-.823.176-1.368.109-.859-.107-1.03-.654-.609-1.407.615-1.1 2.145-2.192 3.524-2.021.388.048.637.172.795.285l.62-.604c-.122-.096-.497-.278-.993-.34M292.966 136.307c-.768-.095-.939-.705-.512-1.469.599-1.071 2.037-2.205 3.177-2.063.95.118.803.917.502 1.456-.612 1.093-2.101 2.208-3.167 2.076m3.12-4.157c-1.718-.213-3.726 1.054-4.591 2.6-.589 1.054-.331 2.014.991 2.178 1.785.222 3.779-1.134 4.589-2.581.55-.984.44-2.02-.989-2.197M305.446 133.312c-.792-.086-1.669.188-2.516.802.286-.59.153-1.095-.656-1.196-.694-.086-1.547.161-2.401.754l-.025-.003.621-.857-.801-.1c-.263.376-.602.823-1 1.331l-2.551 3.219.893.111 1.79-2.286c.76-.964 2.028-1.636 2.681-1.555.661.082.558.503.334.902-.101.18-.222.351-.383.56l-2.118 2.666.867.108 1.841-2.329c.806-1.014 1.97-1.594 2.622-1.513.595.074.623.418.348.91-.11.197-.273.424-.415.599l-2.075 2.621.884.11 2.127-2.683c.204-.253.415-.567.535-.782.493-.881.01-1.313-.602-1.389M314.27 134.408c-.792-.086-1.67.188-2.517.802.286-.59.162-1.094-.646-1.195-.702-.087-1.558.16-2.409.753l-.025-.003.621-.858-.793-.098c-.271.375-.602.823-1.008 1.33l-2.542 3.22.884.11 1.79-2.286c.76-.964 2.029-1.636 2.682-1.555.669.083.56.503.334.902-.101.18-.214.352-.384.56l-2.117 2.666.875.109 1.843-2.329c.797-1.016 1.961-1.595 2.62-1.513.588.073.615.417.342.909a4.49 4.49 0 01-.415.598l-2.075 2.622.884.11 2.136-2.682c.195-.255.406-.569.526-.783.488-.881.005-1.313-.606-1.389M318.28 135.023l-.894-.11-3.625 4.54.909.113 3.61-4.543m.886-1.852c-.313-.039-.708.16-.888.466-.162.29-.083.528.229.567a.954.954 0 00.921-.461c.164-.29.069-.531-.262-.572M322.547 135.436c-.76-.094-1.686.187-2.521.782l-.026-.003.644-.898-.81-.101c-.263.376-.602.823-1.008 1.33l-2.551 3.218.898.112 1.745-2.205c.887-1.128 2.189-1.703 2.833-1.623.62.077.632.45.374.913a5.478 5.478 0 01-.403.594l-2.087 2.626.901.112 2.111-2.654c.198-.248.401-.532.52-.74.548-.977.016-1.384-.62-1.463M324.47 140.102c-.802-.099-.689-.724-.391-1.244.641-1.146 2.252-2.259 3.574-2.094.372.046.646.173.778.264l-1.212 1.521c-.694.879-1.972 1.649-2.749 1.553m3.703-3.967c-2.041-.253-4.233 1.158-5.119 2.738-.466.834-.353 1.69.713 1.822.72.089 1.544-.155 2.39-.762l.022.003-.563.679c-1.017 1.23-1.938 1.537-2.829 1.426-.546-.068-1.011-.262-1.233-.481l-.597.594c.224.232.757.447 1.401.527.595.074 1.378.047 2.131-.287.779-.355 1.466-.994 2.232-1.958l2.979-3.76c-.326-.225-.916-.466-1.527-.541M332.364 141.2c-.761-.094-.94-.705-.515-1.469.601-1.071 2.047-2.204 3.179-2.063.95.118.812.918.511 1.457-.611 1.093-2.101 2.208-3.175 2.075m3.12-4.158c-1.72-.213-3.72 1.055-4.582 2.601-.589 1.054-.331 2.014.989 2.179 1.776.22 3.771-1.135 4.58-2.583.552-.984.442-2.019-.987-2.197M341.407 137.778c-.71-.088-1.552.327-2.248.922l-.033-.004c.258-.352.484-.677.707-.996l-.793-.098c-.301.427-.727 1.03-1.191 1.623l-2.325 2.93.892.111 1.587-2.001c.84-1.06 2.012-1.812 2.796-1.714.101.012.175.034.238.048l.614-.766a1.598 1.598 0 00-.244-.055M341.266 142.28c-.768-.095-.665-.708-.351-1.271.696-1.245 2.35-2.321 3.622-2.164.38.047.637.172.746.311l-1.26 1.589c-.82 1.027-2.055 1.623-2.757 1.535m7.166-5.846l-.898-.111-1.715 2.183c-.178-.127-.511-.242-.85-.285-1.867-.232-4.126 1.122-5.052 2.778-.535.956-.391 1.772.634 1.899.751.093 1.628-.194 2.479-.801l.022.003-.656.909.824.103c.286-.447.68-.975 1.054-1.454l4.158-5.224M347.468 140.786l-.184-.024c.642-.707 1.701-1.368 2.56-1.261.479.059.693.309.483.685-.393.703-1.519.766-2.859.6m2.861-1.9c-1.702-.211-3.773 1.234-4.563 2.646-.574 1.031-.439 1.958.956 2.131a5.14 5.14 0 001.958-.153l.201-.613c-.417.115-.979.219-1.599.142-.545-.068-.862-.324-.832-.772.025-.269.234-.707.391-.904l.234.03c1.846.229 3.475.067 4.13-1.104.379-.678.132-1.278-.876-1.403M355.559 139.536c-.71-.088-1.544.328-2.237.923l-.033-.004c.25-.353.484-.677.707-.996l-.801-.1a39.41 39.41 0 01-1.184 1.624l-2.328 2.93.895.111 1.587-2c.84-1.06 2.003-1.813 2.796-1.715.091.011.175.034.238.048l.612-.766a1.669 1.669 0 00-.252-.055M356.345 143.564c-.388-.048-.839.206-1.04.564-.171.307-.073.591.281.635.413.051.854-.197 1.05-.55.184-.329.081-.602-.291-.649m2.639-3.312c-.397-.049-.842.205-1.041.564-.171.307-.071.586.274.629.413.051.858-.191 1.061-.55.181-.324.077-.597-.294-.643"/><path clip-path="url(#b)" fill="#424E5A" d="M515.858 288.332l3.126-3.791 3.479.432c.313.039.638.092.952.162.312.07.572.176.783.32a.95.95 0 01.395.575c.06.229-.023.536-.23.905-.427.758-1 1.301-1.734 1.617a4.338 4.338 0 01-2.323.329l-4.448-.549m4.822-5.859l2.65-3.236 3.75.467c.57.068.967.23 1.188.48.229.244.188.647-.129 1.209a2.869 2.869 0 01-1.506 1.317 3.928 3.928 0 01-1.938.261l-4.015-.498m7.934-5.182l-6.77-.84-11.331 13.818 8.583 1.063a9.916 9.916 0 002.494-.006 9.817 9.817 0 002.45-.64 8.339 8.339 0 002.188-1.281 6.792 6.792 0 001.64-1.971c.389-.692.521-1.328.404-1.906-.122-.57-.519-1.006-1.184-1.284l.022-.041a4.58 4.58 0 001.488-.22 6.223 6.223 0 001.367-.629c.427-.27.822-.584 1.165-.942.348-.366.639-.744.86-1.146.379-.678.563-1.25.562-1.707a1.482 1.482 0 00-.471-1.146c-.318-.3-.767-.541-1.359-.714a13.88 13.88 0 00-2.108-.408M532.598 291.29c-.471-.058-.817-.207-1.066-.442-.244-.24-.257-.552-.043-.934.178-.318.394-.577.64-.764.256-.19.521-.332.803-.426.288-.088.588-.149.909-.172.325-.027.637-.033.958-.023.479.035.959.057 1.458.062.497.013.997-.062 1.53-.225l-.882.961c-.247.269-.512.53-.808.792a4.759 4.759 0 01-.971.678 4.69 4.69 0 01-1.153.434c-.416.097-.88.121-1.375.059m7.092-8.717a11.133 11.133 0 00-2.014-.07 7.702 7.702 0 00-1.983.36c-.646.205-1.264.5-1.853.891-.587.387-1.123.9-1.588 1.543l2.999.373a3.077 3.077 0 011.479-1.048 4.06 4.06 0 012.384-.045c.212.063.392.153.546.272a.755.755 0 01.29.442c.053.174 0 .396-.149.663-.185.33-.415.566-.688.713-.276.146-.617.23-1.029.273a10.37 10.37 0 01-1.502.02 68.151 68.151 0 00-2.06-.062c-1.493-.03-2.805.209-3.913.709-1.109.5-1.944 1.25-2.501 2.246a2.624 2.624 0 00-.348 1.061c-.03.342.039.654.216.941.188.283.466.528.86.731.39.209.902.349 1.538.427.677.084 1.39.062 2.14-.062a6.72 6.72 0 002.145-.771l-.566 1.014 3.205.398a1.89 1.89 0 01.221-.611c.107-.194.25-.434.429-.7.176-.271.347-.496.509-.677l3.358-4.016c.538-.645.941-1.214 1.22-1.705.343-.584.457-1.07.34-1.463-.105-.391-.352-.712-.725-.963a4.326 4.326 0 00-1.36-.584 12.874 12.874 0 00-1.6-.3M552.586 284.175a8.685 8.685 0 00-3.083.156 10.27 10.27 0 00-2.845 1.14 11.318 11.318 0 00-2.438 1.896 11.496 11.496 0 00-1.827 2.43c-.849 1.52-1.016 2.688-.505 3.512.514.823 1.597 1.336 3.229 1.541 1.536.188 2.994 0 4.395-.576 1.391-.57 2.683-1.477 3.89-2.699l-3.206-.398a6.465 6.465 0 01-.763.68c-.271.215-.565.4-.877.543a4.993 4.993 0 01-.979.33c-.339.069-.69.082-1.045.037-.413-.051-.72-.15-.936-.307a1.068 1.068 0 01-.42-.561c-.066-.227-.06-.479.013-.762.075-.279.205-.572.378-.882.24-.437.559-.901.962-1.401a9.006 9.006 0 011.35-1.355 6.382 6.382 0 011.626-.963 3.544 3.544 0 011.775-.236c.719.089 1.188.29 1.388.6.206.312.142.773-.198 1.381l3.206.398c.361-.679.54-1.283.534-1.811.003-.524-.154-.971-.456-1.332-.309-.365-.735-.66-1.279-.889-.557-.232-1.188-.385-1.889-.472M566.682 282.02l-3.206-.4-11.324 13.819 3.181.395 2.664-3.248 2.372-1.049-.657 4.841 3.527.438.571-6.771 7.422-3.257-3.949-.491-6.762 3.278-.018-.046 6.179-7.509M579.279 283.583l-3.205-.397-11.373 13.812 3.181.395 11.397-13.81M577.567 296.614c-.38-.048-.678-.152-.887-.314a1.186 1.186 0 01-.443-.594 1.675 1.675 0 01-.023-.795c.059-.291.172-.593.34-.894.246-.439.583-.898.994-1.383a9.03 9.03 0 011.391-1.312 6.7 6.7 0 011.646-.937 3.583 3.583 0 011.76-.24c.858.105 1.348.392 1.474.847.125.455-.011 1.024-.397 1.721a9.071 9.071 0 01-.987 1.39 9.796 9.796 0 01-1.404 1.33 6.895 6.895 0 01-1.668.942 3.594 3.594 0 01-1.796.239m6.079-8.582a8.81 8.81 0 00-3.081.155 10.97 10.97 0 00-2.896 1.127 11.756 11.756 0 00-2.473 1.879 11.128 11.128 0 00-1.854 2.427c-.826 1.476-.958 2.644-.398 3.498.56.862 1.65 1.388 3.278 1.59a9.086 9.086 0 003.139-.144 10.789 10.789 0 002.896-1.106 11.376 11.376 0 002.494-1.901 11.194 11.194 0 001.884-2.481c.418-.747.646-1.405.693-1.981.04-.574-.079-1.072-.365-1.492-.278-.418-.705-.765-1.271-1.024-.565-.27-1.252-.448-2.046-.547M591.221 297.839c-.371-.046-.669-.146-.862-.299a.96.96 0 01-.399-.582 1.51 1.51 0 01.008-.772c.07-.283.19-.578.362-.885.229-.41.551-.842.946-1.281a8.382 8.382 0 011.319-1.181 6.538 6.538 0 011.544-.817c.55-.205 1.101-.271 1.637-.205.783.1 1.244.377 1.383.849.146.464.038 1.021-.327 1.674a7.56 7.56 0 01-.972 1.328c-.4.444-.854.842-1.349 1.188-.48.342-1.013.61-1.582.809a3.87 3.87 0 01-1.708.174m5.157-8.226a6.835 6.835 0 00-2.799.234 10.48 10.48 0 00-2.654 1.203 11.788 11.788 0 00-2.265 1.855 10.574 10.574 0 00-1.649 2.189c-.354.637-.581 1.229-.648 1.764-.072.543-.03 1.02.147 1.438.178.427.483.767.937 1.032.438.271 1.014.447 1.707.534 1.306.159 2.643-.192 4.019-1.058l.021.041c-.438.473-.866.92-1.278 1.338-.407.414-.827.771-1.245 1.062s-.85.508-1.292.649a3.215 3.215 0 01-1.428.119 3.238 3.238 0 01-.726-.176 1.524 1.524 0 01-.552-.341.857.857 0 01-.22-.522c-.021-.201.057-.433.221-.695l-3.188-.396c-.353.625-.496 1.172-.442 1.629.057.465.246.854.576 1.182.322.324.752.582 1.279.777a7.441 7.441 0 001.666.397c.968.12 1.856.138 2.666.052a8.378 8.378 0 002.295-.562 8.452 8.452 0 002.051-1.219 13.785 13.785 0 001.896-1.896l7.797-9.481-3.072-.383-1.244 1.529-.042-.005c.05-.722-.161-1.261-.617-1.612-.466-.35-1.107-.578-1.917-.678M609.987 299.34l-3.562-.441-2.44 2.979 3.545.438 2.457-2.976m5.615-6.85l-3.561-.442-2.468 2.976 3.566.442 2.463-2.976M623.279 302.08c-.438-.055-.755-.167-.972-.336-.215-.169-.341-.371-.383-.611s-.012-.516.079-.82c.104-.31.243-.625.433-.961.186-.33.438-.738.771-1.224.325-.485.707-.996 1.127-1.524.429-.527.894-1.061 1.407-1.584a11.93 11.93 0 011.593-1.394 7.368 7.368 0 011.652-.935c.558-.223 1.104-.301 1.626-.237.413.051.722.164.936.333.225.17.362.379.426.629.064.249.049.532-.038.843a4.447 4.447 0 01-.424.994c-.178.317-.43.722-.751 1.201-.326.473-.705.978-1.137 1.512a22.016 22.016 0 01-1.426 1.569c-.514.519-1.042.979-1.597 1.381a7.306 7.306 0 01-1.657.934c-.571.216-1.12.298-1.665.23m8.872-11.932a7.706 7.706 0 00-2.537.11c-.854.181-1.685.468-2.483.855-.81.389-1.59.864-2.343 1.424a18.635 18.635 0 00-2.098 1.81 21.636 21.636 0 00-1.765 1.998 17.281 17.281 0 00-1.348 2.028 9.15 9.15 0 00-.87 2.078c-.181.671-.218 1.271-.096 1.813.11.539.405.992.894 1.354.477.368 1.166.603 2.073.716a8.15 8.15 0 002.636-.1 11.087 11.087 0 002.544-.836 14.832 14.832 0 002.396-1.404 18.886 18.886 0 002.138-1.803 19.24 19.24 0 001.808-2.029c.536-.707.994-1.398 1.373-2.077.438-.78.73-1.513.875-2.183.144-.676.117-1.266-.05-1.788-.18-.519-.528-.951-1.045-1.293-.516-.333-1.218-.562-2.102-.673"/><path clip-path="url(#b)" fill="gray" d="M334.025 62.854c-.267-.033-.55 0-.841.094L284.09 77.673c-.663.19-1.134.559-1.402 1.102-.27.561-.171.969.292 1.231l7.232 4.415 35.037-15.716-31.855 19.015-3.959 7.08c-.149.267-.197.527-.15.774.059.242.2.433.437.562.111.07.26.119.458.146.479.06.938-.05 1.394-.328l8.896-5.291 8.303 5.043c.158.094.333.146.499.167.256.032.523.01.801-.074.533-.163.949-.433 1.244-.818l23.303-30.422c.395-.533.428-.987.104-1.374-.163-.184-.393-.293-.699-.331"/><path clip-path="url(#b)" fill="#424E5A" d="M490.663 274.503l-1.058-.131a.81.81 0 00-.466.085.806.806 0 00-.337.316l-2.888 5.166-3.717-.463a.76.76 0 00-.451.078.826.826 0 00-.341.323l-.523.938c-.075.133-.091.254-.039.354.05.1.148.161.308.182l5.312.658c.157.021.307-.012.454-.086s.263-.186.337-.316l3.675-6.57c.074-.135.089-.256.039-.354-.05-.098-.148-.16-.305-.18m-9.199 13.401c-1.637-.203-2.95-.743-3.932-1.627-.987-.893-1.536-1.993-1.663-3.314-.129-1.316.214-2.704 1.02-4.146.812-1.444 1.963-2.731 3.455-3.854a15.574 15.574 0 014.91-2.49c1.777-.541 3.489-.714 5.126-.511 1.636.203 2.946.75 3.938 1.636.979.883 1.527 1.983 1.654 3.308.126 1.321-.217 2.711-1.023 4.157-.809 1.439-1.959 2.729-3.448 3.845a15.85 15.85 0 01-4.904 2.497c-1.789.538-3.497.702-5.133.499m10.752-19.226c-2.312-.287-4.727-.048-7.239.717a22.227 22.227 0 00-6.936 3.522c-2.104 1.584-3.719 3.396-4.861 5.438-1.14 2.039-1.63 3.99-1.455 5.854.178 1.867.956 3.428 2.354 4.678 1.387 1.25 3.232 2.019 5.549 2.305 2.312.289 4.727.049 7.239-.717a22.17 22.17 0 006.936-3.521c2.105-1.584 3.729-3.395 4.866-5.432 1.143-2.045 1.625-3.996 1.45-5.863s-.957-3.426-2.354-4.676c-1.387-1.249-3.236-2.018-5.549-2.305"/><path clip-path="url(#b)" fill="#FFF" d="M340.044 258.895l2.576-.894.631 1.131-2.006.696-20.733 37.076 1.058.875-1.632.926-1.771-1.471-89.208-11.078-3.05.871-.459-1.187 1.84-.524 20.729-37.066-1.018-1.07 1.731-.838 1.308 1.375 90.004 11.178m4.173-.857l-96.912-12.035-22.906 40.961 96.912 12.035 22.906-40.961"/><path clip-path="url(#b)" fill="#FFF" d="M276.548 275.609l-.936 1.675 3.393 3.569.866-.418-.315-.565.784-.271-3.792-3.99m-27.816-29.267l-1.731.838 1.018 1.07 23.269 24.484 1.257-.36.457 1.19-.727.207.412.435.937-1.674-23.583-24.814-1.309-1.376"/><path clip-path="url(#b)" fill="#FFF" d="M288.088 278.261l-2.866-.354-4.883 1.691-.784.271.315.566.315.562 7.903-2.736m54.533-20.26l-2.576.894-42.383 14.697-.936 1.674 44.521-15.438 2.006-.696-.632-1.131M298.091 278.275l-.643 1.148-.854-.107 21.573 17.918 1.771 1.471 1.631-.926-1.056-.877-22.422-18.627M272.545 272.374l-1.257.36-43.998 12.582-1.84.527.459 1.184 3.05-.871 43.315-12.385.727-.207-.456-1.19"/><path clip-path="url(#b)" fill="#CE4E27" d="M284.041 262.211l-3.453-.429a7.242 7.242 0 01-1.782 1.717 8.244 8.244 0 01-2.078.999 8.61 8.61 0 01-2.247.384 12.224 12.224 0 01-2.264-.12l-1.616 2.889 5.378.668-2.356 4.215-.937 1.674-3.568 6.38 4.345.54 2.148-3.842.936-1.676 7.494-13.399M286.61 274.697l9.207-5.879.09.012-3.671 6.564-5.626-.697m16.118-10.165l-3.882-.482-15.466 9.868-1.965 3.514 3.809.476 2.866.354 2.38.295-2.448 4.377 4.13.516 2.448-4.377 1.996.247.854.104.643-1.147 1.125-2.013-2.85-.354.359-.645.936-1.675 5.065-9.058"/><path clip-path="url(#b)" fill="#0078BD" d="M379.934 294.124l.102.015h.002a2.371 2.371 0 00-.104-.015m.216.026h-.012c.005-.002.008 0 .012 0m-1.767-.848c.298.431.859.716 1.538.82-.539-.084-1.013-.283-1.34-.593a1.431 1.431 0 01-.198-.227m-.041-.064c.009.015.02.029.027.043l-.027-.043m-.042-.074l.001.004-.001-.004m.37-10.348a4.517 4.517 0 00-1.901.189c-1.566.499-2.477 1.682-2.022 2.643l3.519 7.442c-.345-.766.165-1.728 1.328-2.335l3.299-1.721-2.461-5.196c-.266-.559-.937-.919-1.762-1.022"/><path clip-path="url(#b)" fill="#0078BD" d="M403.945 278.932c-.827-.104-1.792.059-2.611.483l-18.443 9.622-3.299 1.721c-1.163.607-1.673 1.569-1.328 2.335.013.024.023.048.036.071l.001.004c.015.023.026.046.041.068.009.016.02.029.027.044l.014.021c.057.079.121.155.197.229.327.309.801.507 1.34.592l.013.002c.034.005.067.011.104.015h.002l.103.012h.012a4.583 4.583 0 002.492-.491l21.746-11.349c1.398-.729 1.85-1.977 1.003-2.772-.351-.333-.866-.536-1.45-.607"/><path clip-path="url(#b)" fill="#424E5A" d="M515.739 224.179l2.399-4.296 6.622-1.382-2.208 3.948-6.813 1.73m14.565 1.807l2.402-4.295 6.622-1.382-2.208 3.949-6.816 1.728m-12.284-7.623l-4.524-2.884 6.959-1.463 4.532 2.891-6.967 1.456m14.564 1.809l-4.527-2.884 6.959-1.464 4.532 2.891-6.964 1.457m-4.311-4.473l1.875-3.352 6.61-1.383-1.868 3.34-6.617 1.395m1.753-4.872l-4.942-3.152 7.6-1.601 4.94 3.158-7.598 1.595m3.555-6.357a2.372 2.372 0 00-.778.033l-7.728 1.622a3.388 3.388 0 00-1.142.503 2.626 2.626 0 00-.798.842l-2.81 5.025-7.479 1.573a3.28 3.28 0 00-1.139.502c-.354.241-.62.523-.798.842l-2.924 5.228c-.168.301-.241.589-.205.873a.965.965 0 00.413.683l4.797 3.605c.175.145.411.243.709.28.306.038.61.008.918-.078l7.94-2.023.129-.04.068.064 4.797 3.604c.176.146.411.244.709.281.309.037.614.008.918-.078l7.943-2.021a2.981 2.981 0 001.064-.5c.326-.238.571-.505.739-.806l2.925-5.228c.18-.318.244-.626.193-.917a1.028 1.028 0 00-.473-.703l-4.871-3.106 2.811-5.025c.181-.318.244-.626.194-.917a1.09 1.09 0 00-.474-.703l-5.021-3.206c-.154-.107-.371-.177-.627-.209M568.067 213.043a11.683 11.683 0 00-2.453-.038c-.854.073-1.674.244-2.478.522a8.3 8.3 0 00-2.23 1.184 6.198 6.198 0 00-1.702 1.968c-.34.607-.518 1.143-.521 1.595 0 .458.104.854.323 1.191.225.344.521.634.896.879.384.246.789.469 1.227.666.421.195.846.384 1.271.56a5.7 5.7 0 011.065.585c.301.205.508.435.625.684.116.25.073.548-.117.89a2.59 2.59 0 01-.797.886 4.072 4.072 0 01-1.062.524 5.06 5.06 0 01-1.187.237 5.39 5.39 0 01-1.147-.013 6.151 6.151 0 01-1.352-.304c-.391-.141-.688-.333-.893-.569-.201-.242-.291-.538-.27-.9.019-.357.188-.788.506-1.293l-3.362-.417c-.978 1.743-1.138 3.091-.482 4.039.653.948 2.104 1.562 4.359 1.843.769.094 1.59.11 2.469.04a9.81 9.81 0 002.562-.549 8.744 8.744 0 002.35-1.263 6.662 6.662 0 001.82-2.102c.354-.637.55-1.189.582-1.656.033-.459-.055-.873-.271-1.222-.209-.354-.522-.659-.938-.922a10.423 10.423 0 00-1.454-.719c-.24-.092-.56-.205-.946-.346a5.501 5.501 0 01-1.071-.517 2.243 2.243 0 01-.744-.706c-.154-.273-.144-.581.05-.923.188-.336.426-.604.717-.809.292-.205.617-.363.96-.469a4.423 4.423 0 011.083-.182 5.929 5.929 0 011.06.033c.404.05.769.132 1.087.252.321.12.566.281.734.487.159.206.242.451.229.741-.003.291-.135.634-.363 1.032l3.36.418c.46-.822.688-1.543.688-2.162.003-.619-.17-1.148-.513-1.593-.339-.438-.834-.785-1.47-1.042-.634-.258-1.374-.437-2.2-.54M580.799 215.838l-3.206-.398-2.47 3.043-2.057-.255-1.558 1.832 2.102.261-4.402 5.361c-.146.18-.287.354-.405.521a3.47 3.47 0 00-.299.438c-.248.426-.364.777-.34 1.065.021.288.139.524.35.719.205.187.477.337.813.441.339.104.691.18 1.063.226.35.043.688.079 1.032.098.34.023.687.043 1.03.056l1.76-2.104a10.921 10.921 0 01-1.182-.084 7.301 7.301 0 01-.365-.059c-.128-.021-.229-.064-.307-.131s-.115-.157-.128-.264c-.013-.105.036-.256.143-.439.021-.041.059-.104.123-.188.062-.086.142-.177.228-.281l4.063-4.978 2.28.283 1.555-1.832-2.298-.286 2.475-3.045M581.409 228.303c-.372-.046-.671-.145-.888-.308a1.182 1.182 0 01-.442-.601c-.07-.237-.083-.5-.023-.795.06-.289.168-.586.341-.895.245-.44.581-.9.992-1.381.41-.481.877-.919 1.389-1.308a6.832 6.832 0 011.646-.941 3.573 3.573 0 011.76-.24c.858.107 1.354.391 1.474.845.126.456-.003 1.034-.391 1.723-.244.44-.583.899-1.001 1.393a9.677 9.677 0 01-1.399 1.324 6.862 6.862 0 01-1.668.942 3.511 3.511 0 01-1.79.242m6.08-8.581a8.678 8.678 0 00-3.086.162 10.579 10.579 0 00-2.88 1.122 11.858 11.858 0 00-2.481 1.878 11.075 11.075 0 00-1.852 2.426c-.825 1.476-.957 2.643-.396 3.499.552.861 1.645 1.396 3.271 1.596a9.103 9.103 0 003.139-.147 10.772 10.772 0 002.898-1.104 11.61 11.61 0 002.502-1.9 11.486 11.486 0 001.885-2.484c.415-.741.646-1.406.686-1.983.04-.577-.08-1.075-.365-1.494-.276-.418-.703-.763-1.271-1.025-.57-.27-1.249-.447-2.05-.546M600.765 221.37a8.548 8.548 0 00-3.086.162 10.195 10.195 0 00-2.845 1.139 11.502 11.502 0 00-4.262 4.319c-.852 1.517-1.019 2.685-.506 3.51.511.825 1.591 1.343 3.226 1.546a8.61 8.61 0 004.396-.575c1.392-.576 2.688-1.474 3.89-2.705l-3.206-.396a8.086 8.086 0 01-.751.68 4.463 4.463 0 01-1.868.87c-.34.067-.688.082-1.046.037-.412-.054-.719-.149-.933-.31a1.086 1.086 0 01-.42-.561c-.067-.227-.062-.472.016-.753.072-.289.198-.576.37-.883.246-.44.568-.908.965-1.41.4-.495.85-.947 1.353-1.355a6.344 6.344 0 011.625-.962 3.535 3.535 0 011.772-.237c.729.09 1.189.29 1.396.601.195.31.135.771-.209 1.385l3.205.398c.363-.686.545-1.289.547-1.814-.01-.521-.166-.968-.467-1.333-.309-.367-.732-.661-1.279-.884-.551-.229-1.182-.382-1.883-.469M614.86 219.214l-3.205-.399-11.326 13.826 3.181.394 2.667-3.253 2.371-1.05-.66 4.847 3.527.439.574-6.778 7.423-3.257-3.95-.49-6.762 3.277-.018-.045 6.178-7.511M625.138 232.434l-3.561-.439-2.446 2.982 3.544.439 2.463-2.982m5.623-6.85l-3.565-.443-2.46 2.976 3.561.441 2.464-2.974M637.459 231.301l8.941-4.629.041.005-4.289 5.207-4.693-.583m14.451-7.183l-3.123-.388-13.786 7.006-2.026 2.503 7.312.907-2.592 3.133 3.041.379 2.6-3.133 2.099.262 1.874-2.262-2.104-.262 6.705-8.145M651.075 236.955a2.89 2.89 0 01-.952-.273 1.898 1.898 0 01-.652-.539 1.411 1.411 0 01-.246-.761c-.002-.278.095-.589.279-.925.454-.811 1.09-1.382 1.912-1.713a4.981 4.981 0 012.521-.337c.328.041.635.129.911.262.278.133.51.312.673.522.173.213.266.474.273.771s-.093.64-.31 1.024a3.756 3.756 0 01-1.801 1.623c-.789.349-1.658.464-2.608.346m5.069-6.299a3.612 3.612 0 01-.808-.199 1.76 1.76 0 01-.662-.411c-.175-.176-.271-.394-.311-.646s.04-.545.225-.875a3.102 3.102 0 011.497-1.353c.665-.289 1.406-.383 2.232-.278.339.043.634.113.889.229.264.113.466.256.613.436.145.188.224.405.224.659.008.255-.089.552-.273.882a2.61 2.61 0 01-.651.762 3.784 3.784 0 01-.908.521 4.576 4.576 0 01-1.033.271 4.363 4.363 0 01-1.034.002m3.823-5.841a10.585 10.585 0 00-2.497-.007 9.177 9.177 0 00-2.342.57 7.625 7.625 0 00-1.981 1.128 5.54 5.54 0 00-1.425 1.662c-.334.596-.438 1.146-.311 1.646.136.5.41.893.821 1.186l-.023.04c-.621.053-1.229.146-1.822.288a7.635 7.635 0 00-1.672.591 6.27 6.27 0 00-1.419.957 5.432 5.432 0 00-1.073 1.365c-.337.602-.504 1.169-.496 1.709a2.311 2.311 0 00.48 1.446c.32.424.784.775 1.382 1.066.608.286 1.335.488 2.193.598.811.101 1.661.095 2.54-.01a10.871 10.871 0 002.533-.611 8.637 8.637 0 002.228-1.215 5.866 5.866 0 001.61-1.84c.191-.348.315-.695.39-1.06a2.659 2.659 0 00-.007-1.019 2.003 2.003 0 00-.374-.832 1.566 1.566 0 00-.72-.527l.021-.041a5.394 5.394 0 001.479-.275c.49-.152.943-.363 1.366-.613.43-.258.807-.539 1.153-.86.339-.323.602-.649.785-.979.291-.521.443-1.016.458-1.496a2.25 2.25 0 00-.328-1.311c-.238-.395-.602-.725-1.091-1.002-.487-.272-1.107-.46-1.858-.554"/><path clip-path="url(#b)" fill="#010101" d="M729.03 182.423l-6.188-.768a.67.67 0 00-.55.191c-.176.158-.224.307-.142.459l.864 1.736-9.858 5.01-1.675-3.341a.34.34 0 00-.265-.163.674.674 0 00-.391.082l-12.438 6.318 1.387 2.754 8.839-4.493 1.678 3.335c.051.099.136.153.259.168a.665.665 0 00.396-.087l13.447-6.831.878 1.731a.28.28 0 00.234.171.646.646 0 00.217-.016c.224-.047.392-.156.485-.33l3.057-5.465c.067-.122.082-.225.032-.312-.036-.083-.133-.132-.266-.149m-24.131-4.717l-1.826-.227-10.794 19.302 29.138 3.618.9-1.609-27.312-3.392 9.894-17.692"/><g clip-path="url(#b)" fill="#424E5A"><path d="M237.274-10.581l-2.758-.342-91.491 163.604 50.944 6.327 1.334-.862-.261-1.067-48.179-5.983 90.411-161.677"/><path d="M193.188 149.493l1.854 7.586.261 1.067-1.334.862-9.554 6.175 31.78-4.443-23.007-11.247M162.718 256.371l-72.633-9.019-65.062 116.343 1.066.735 1.694-.392 63.983-114.417 69.874 8.677 1.078-1.927"/><path d="M39.831 361.262l-12.048 2.776-1.694.392-1.066-.735-7.58-5.215.458 20.59 21.93-17.808M725.354 319.877l-12.996-1.613-.272-.035-1.342.869.26 1.059.276.034 12.995 1.614 1.079-1.928"/><path d="M721.633 312.059l-6.297.88-25.484 3.563 18.451 9.014 4.559 2.227-1.768-7.22-.09-.366-.26-1.059 1.342-.869.457-.295 9.09-5.875M790.919 365.279l-2.76-.341-54.497 97.454 2.76.342 54.497-97.455M939.128 97.612l-1.695.39-63.922 114.307 2.76.343 63.922-114.307-1.065-.733"/><path d="M947.318 82.964l-21.932 17.814 12.047-2.776 1.695-.39 1.065.733 7.578 5.213-.453-20.594M773.972 232.938l-12.995-1.616-21.966-2.726-1.081 1.931 21.966 2.729 12.995 1.614 1.081-1.932"/></g><path clip-path="url(#b)" fill="#0078BD" d="M758.009 266.759l34.894-62.393 161.817 20.096-34.891 62.394-161.82-20.097m200.543-43.889l-82.28-10.218-2.761-.343-82.289-10.219-17.25 30.848-1.081 1.936-18.723 33.479 167.33 20.779 37.054-66.262M709.707 353.133l34.895-62.398 161.82 20.098-34.895 62.396-161.82-20.096m200.544-43.89l-167.33-20.78-17.567 31.414-1.075 1.928-18.405 32.913 82.289 10.222 2.76.344 82.281 10.218 37.047-66.259"/><path clip-path="url(#b)" fill="#F47844" d="M765.079 335.305c-5.039-.625-11.148 2.479-13.639 6.934-2.492 4.457-.427 8.578 4.613 9.203 5.048.627 11.157-2.479 13.649-6.937 2.494-4.452.425-8.573-4.623-9.2M834.357 343.908c-5.051-.627-11.156 2.479-13.646 6.931-2.493 4.457-.425 8.578 4.623 9.205 5.047.626 11.157-2.479 13.649-6.937 2.492-4.453.422-8.572-4.626-9.199M879.276 313.303l-74.891-9.3-17.681 31.616 4.709.585a4.394 4.394 0 01-.033-1.298c.093-.895.454-1.889 1.095-2.985l4.134.515a5.259 5.259 0 00-.537 1.479c-.093.479-.083.906.038 1.274.115.373.354.688.699.938.354.255.845.421 1.473.499.98.122 1.958-.042 2.926-.49a4.736 4.736 0 002.222-2.047c.404-.725.555-1.287.452-1.709a1.529 1.529 0 00-.747-.972c-.396-.235-.872-.397-1.439-.501a33.438 33.438 0 00-1.646-.248l1.509-2.697c.229.046.468.085.718.116.252.03.516.055.787.069a6.395 6.395 0 001.652-.129 4.614 4.614 0 001.547-.603c.479-.288.87-.703 1.171-1.241.453-.811.497-1.475.127-1.979-.368-.51-.95-.812-1.743-.91-1.106-.139-2.11.078-3.029.646a5.98 5.98 0 00-2.162 2.316l-4.131-.514a12.198 12.198 0 012.085-2.59 11.447 11.447 0 012.655-1.875c.96-.5 1.978-.851 3.056-1.058 1.076-.2 2.163-.231 3.262-.097a8.124 8.124 0 012.382.654c.731.332 1.313.765 1.737 1.299.437.537.682 1.156.746 1.856.067.701-.135 1.476-.606 2.319a7.164 7.164 0 01-2.11 2.339c-.89.642-1.908 1.024-3.05 1.156l-.029.052c1.052.38 1.704.999 1.938 1.855.234.857.058 1.828-.551 2.91a8.96 8.96 0 01-2.133 2.563c-.323.267-.655.511-.997.735l9.396 1.168 5.523-9.883-5.378-.668 1.615-2.892c.093.017.187.026.28.038.649.081 1.312.105 1.991.083a8.414 8.414 0 002.237-.386 8.19 8.19 0 002.078-.998c.66-.437 1.253-1.01 1.782-1.717l3.452.43-9.243 16.527 42.981 5.338 17.681-31.588"/><path clip-path="url(#b)" fill="#F47844" d="M757.855 325.188l12.16-11.56 13.61.75-6.181 11.052-19.589-.242m37.398-13.948l-24.85-1.365s-11.688 10.833-15.815 14.646l-6.129 10.961-2.198 3.931c-.631 1.129-.104 2.166 1.165 2.323l1.587.197c3.153-5.642 10.879-9.563 17.268-8.771 6.386.793 9.003 6.003 5.85 11.643l46.163 5.732c1.836-3.283 5.22-5.982 8.988-7.51l-9.905-1.229-.094.168-4.349-.54.098-.167-12.775-1.587a12.598 12.598 0 01-3.655.095c-1.207-.148-2.222-.438-3.03-.865-.053-.025-.102-.055-.147-.08l-12.707-1.577 14.535-26.005M860.299 347.13l-18.861-2.343c1.688 2.203 1.812 5.339-.021 8.622l2.692.335 4.791.595 8.123-1.301 3.276-5.908"/><path clip-path="url(#b)" fill="#424E5A" d="M807.546 320.128a10.55 10.55 0 00-3.262.097c-1.078.207-2.097.56-3.059 1.06a11.27 11.27 0 00-2.652 1.875c-.809.76-1.5 1.62-2.085 2.589l4.131.513a6 6 0 012.162-2.317c.919-.566 1.923-.782 3.027-.646.792.1 1.375.398 1.744.91.371.504.327 1.168-.126 1.979-.301.539-.689.955-1.171 1.241-.472.288-.99.49-1.547.603a6.287 6.287 0 01-1.653.13 13.274 13.274 0 01-.788-.07 8.64 8.64 0 01-.716-.116l-1.509 2.697c.538.066 1.081.152 1.646.248.568.102 1.045.266 1.44.501.396.229.646.558.747.972.1.422-.048.984-.452 1.709a4.727 4.727 0 01-2.222 2.045c-.968.45-1.942.614-2.926.492-.629-.078-1.118-.244-1.474-.498-.344-.254-.583-.566-.701-.941-.118-.366-.129-.795-.036-1.272.094-.481.271-.975.535-1.479l-4.131-.514c-.641 1.098-1.002 2.094-1.095 2.984-.053.462-.041.896.033 1.298.066.375.188.728.368 1.049.344.632.888 1.153 1.632 1.571.049.023.098.054.146.08.812.429 1.825.716 3.032.863a12.643 12.643 0 003.655-.093 12.774 12.774 0 002.77-.809 11.286 11.286 0 001.853-.99c.342-.229.674-.472.997-.734a9.021 9.021 0 002.133-2.564c.604-1.082.785-2.051.55-2.91-.235-.857-.888-1.479-1.938-1.855l.028-.053c1.145-.131 2.162-.518 3.05-1.156a7.068 7.068 0 002.112-2.338c.473-.847.675-1.619.607-2.318a3.388 3.388 0 00-.746-1.857c-.425-.533-1.006-.967-1.738-1.299-.723-.355-1.513-.571-2.371-.677M827.855 323.053l-3.452-.429a7.22 7.22 0 01-1.782 1.717c-.66.439-1.35.769-2.078.998a8.552 8.552 0 01-2.238.386 12.514 12.514 0 01-1.992-.084c-.095-.012-.188-.021-.278-.037l-1.615 2.891 5.378.668-5.525 9.883-1.237 2.219-.097.168 4.348.539.094-.169 1.239-2.218 9.235-16.532"/><path clip-path="url(#b)" fill="#F47844" d="M892.36 260.361c-5.048-.627-11.157 2.479-13.65 6.937-2.489 4.452-.421 8.573 4.627 9.199 5.039.626 11.149-2.479 13.639-6.931 2.493-4.459.423-8.578-4.616-9.205M823.082 251.759c-5.048-.627-11.157 2.478-13.65 6.938-2.486 4.449-.42 8.57 4.627 9.197 5.04.627 11.149-2.479 13.643-6.931 2.488-4.458.419-8.578-4.62-9.204M890.889 224.002l-74.888-9.3-17.677 31.61 46.395 5.762 5.523-9.877-5.387-.67 1.616-2.896c.104.018.203.029.308.042.647.081 1.302.11 1.966.085a8.508 8.508 0 002.249-.39 8.357 8.357 0 002.078-.999c.661-.438 1.245-1.012 1.771-1.711l3.461.43-9.236 16.521 9.504 1.182c1.486-1.934 3.205-3.773 5.146-5.533a54.995 54.995 0 018.948-6.57l-10.152-1.263 1.994-3.563 14.622 1.813-1.842 3.294c-1.604.725-3.192 1.666-4.766 2.82a40.49 40.49 0 00-4.426 3.754 46.462 46.462 0 00-3.766 4.157 39.274 39.274 0 00-1.249 1.651l10.127 1.258 17.681-31.607"/><path clip-path="url(#b)" fill="#F47844" d="M909.227 253.236l-17.302-4.34 6.184-11.053 12.62 2.516-1.502 12.877m-17.954-20.821l-14.543 26.006-15.081-1.873a4.143 4.143 0 01-.102.167l-4.647-.578c.033-.055.069-.109.106-.166l-9.186-1.141-.097.167-4.346-.54.094-.167-13.313-1.654c1.683 2.203 1.803 5.339-.036 8.628l46.164 5.731c3.156-5.646 10.882-9.57 17.268-8.777 6.39.793 9.003 6.003 5.85 11.648l1.587.196c1.271.156 2.812-.627 3.445-1.756l2.197-3.935 6.125-10.953c.389-4.278 1.562-16.425 1.562-16.425l-23.047-4.578M816.002 250.879l-18.86-2.342-3.324 5.902 5.702 3.021 4.791.598 2.692.334c1.836-3.283 5.23-5.988 8.999-7.513"/><path clip-path="url(#b)" fill="#424E5A" d="M858.304 236.091l-3.461-.43c-.522.702-1.106 1.272-1.771 1.711a8.253 8.253 0 01-2.078.999 8.758 8.758 0 01-2.249.39 12.376 12.376 0 01-2.274-.127l-1.616 2.896 5.387.671-5.523 9.877-1.24 2.218-.094.167 4.349.54.094-.167 1.24-2.218 9.236-16.527M879.13 238.677l-14.622-1.815-1.994 3.565 10.152 1.261a55.005 55.005 0 00-8.948 6.572c-1.941 1.758-3.66 3.602-5.146 5.533a36.422 36.422 0 00-1.562 2.178c-.037.055-.072.11-.106.166l4.647.578c.032-.055.065-.111.102-.167.417-.707.895-1.438 1.436-2.192.385-.539.801-1.088 1.249-1.651a46.067 46.067 0 013.765-4.157 40.758 40.758 0 014.427-3.754c1.57-1.152 3.158-2.1 4.766-2.818l1.834-3.299"/></svg>