<svg xmlns="http://www.w3.org/2000/svg" width="615.686" height="410"><path fill="#424E5A" d="M283.224 76.115c-28.217-25.207-65.435-40.551-106.249-40.551-88.13 0-159.57 71.443-159.57 159.571 0 88.129 71.44 159.57 159.57 159.57 40.814 0 78.032-15.344 106.249-40.55V76.115z"/><path fill="#0078BD" d="M176.21 35.565c-1.165.005-2.32.062-3.475.104l3.977 158.906 47.532-151.842a159.235 159.235 0 00-48.034-7.168z"/><path fill="#F4ED98" d="M283.224 354.706l45.594-51.712 36.863-25.564 33.217-16.148 43.147-13.516 22.681-45.353 34.318-32.775 24.427-91.354 40.018-59.204v335.626"/><path fill="none" stroke="#2E358F" stroke-width="3" stroke-miterlimit="10" d="M283.224 247.154l42.711 32.293 37.371-78.716 34.702 39.359 34.702 100.582 40.931 36.997 30.254-93.176 28.473-118.074 31.121-64.587"/><path fill="none" stroke="#059477" stroke-width="3" stroke-miterlimit="10" d="M283.224 302.994l42.711-118.409 37.371 42.386 33.221-20.858 26.83 49.785 47.913-20.855 32.625-102.342 27.215-30.869 32.379 37.003"/><path fill="none" stroke="#000" stroke-width="2" stroke-miterlimit="10" d="M551.419 354.706H283.224V22.335"/><path d="M563.489 354.706c-5.682-2.106-12.729-5.703-17.095-9.513l3.438 9.513-3.438 9.51c4.369-3.809 11.416-7.404 17.095-9.51zM283.224 10.265c2.107 5.68 5.703 12.727 9.512 17.095l-9.512-3.44-9.51 3.44c3.808-4.368 7.404-11.415 9.51-17.095z"/><path fill="#CEE3E7" d="M176.975 195.136l-4.098-159.468c-38.3.969-73.227 15.414-100.242 38.793l104.34 120.675z"/><path fill="#CE4E27" d="M58.42 301.922l118.555-106.786L72.635 74.461c-33.81 29.259-55.23 72.452-55.23 120.674-.001 41.07 15.526 78.506 41.015 106.787z"/><path fill="none" stroke="#000" stroke-width="2" stroke-miterlimit="10" d="M283.245 76.097c-28.217-25.208-65.454-40.533-106.271-40.533-88.13 0-159.57 71.443-159.57 159.571 0 88.129 71.44 159.57 159.57 159.57 40.814 0 78.048-15.324 106.265-40.532"/></svg>